M48
;Layer_Color=9474304
;FILE_FORMAT=4:2
METRIC,LZ
;TYPE=PLATED
T1F00S00C0.50
T2F00S00C1.00
T4F00S00C1.20
;TYPE=NON_PLATED
T6F00S00C3.00
T7F00S00C3.20
%
T01
X009223Y004978
X009096Y005117
Y005371
X009119Y005499
X009106Y00588
Y006007
X009098Y006256
X0087Y006134
X008725Y005749
X010058Y006261
X007391Y005626
X007358Y005501
X007282Y005362
X00685Y005244
Y005117
Y00499
X006896Y006007
X007466Y004125
X007631Y004265
T02
X002864Y002402
Y002652
Y002902
X003264Y003302
X003514Y003502
X003764
X003264Y002002
X004264
X004364Y002302
X004764
Y002952
X004364
X004264Y003302
X004014Y003502
X008692Y003569
Y003315
Y00306
Y002807
Y002552
Y002299
Y002044
Y001791
X011583Y002824
Y003474
X011983
X012083Y003774
X013083
X013483Y003374
Y003124
Y002874
X013083Y002474
X012833Y002274
X012583
X012333
X012083Y002474
X011983Y002824
X012123Y004559
X012372
X011875
X010757Y005055
X010757Y005792
X010782Y006731
X010528
X011036
X01129
X006287Y005575
Y005397
X003678Y004229
X003429
X00318
T04
X001384Y001384
Y001834
X002034
Y001384
X003124Y001067
Y000617
X003774
Y001067
X011745Y001232
Y000782
X012395
Y001232
X013638Y001341
Y001791
X014288
Y001341
T06
X001Y0006
X015
X0125Y00655
X0035
T07
X007409Y001917
Y003467
M30
