M48
;Layer_Color=9474304
;FILE_FORMAT=4:2
METRIC,LZ
;TYPE=PLATED
T3F00S00C1.00
T5F00S00C1.80
;TYPE=NON_PLATED
%
G90
G05
T03
G00X006016Y002743
M15
G01X006126
M16
G00X006016Y003213
M15
G01X006126
M16
G00X006022Y003686
M15
G01X006132
M16
G00X010164Y003378
M15
G01X010054
M16
G00X010164Y002908
M15
G01X010054
M16
G00X010158Y002435
M15
G01X010048
M16
G00X00499Y005763
M15
G01X005195
M16
G00X005016Y006363
M15
G01X00517
M16
G00X004583Y00617
M15
G01Y006016
M16
T05
G00X012624Y005243
M15
G01Y005273
M16
G00X011621Y005243
M15
G01Y005273
M16
G00X003929Y004912
M15
G01Y004943
M16
G00X002926Y004912
M15
G01Y004943
M16
M17
M30
