%FSTAX24Y24*%
%MOMM*%
%SFA1B1*%

%IPPOS*%
%ADD10R,1.449997X0.899998*%
%ADD11R,4.799990X4.799990*%
%ADD12R,1.649997X0.899998*%
%ADD13R,0.899998X1.649997*%
%ADD14R,0.899998X1.449997*%
%ADD15R,2.649995X1.749997*%
%ADD16R,3.299993X1.649997*%
%ADD17R,0.999998X1.649997*%
%ADD18R,1.549997X1.299997*%
%ADD19C,0.759998*%
%ADD20O,2.499995X1.999996*%
%ADD21C,3.199994*%
%ADD22C,1.999996*%
%ADD23C,1.999996*%
%ADD24R,2.499995X2.499995*%
%ADD25C,2.499995*%
%ADD26C,1.499997*%
%ADD27O,3.999992X1.999996*%
%ADD28O,1.999996X3.999992*%
%ADD29O,3.809992X4.319991*%
%ADD30O,1.999996X2.999994*%
%ADD31R,2.999994X1.999996*%
%ADD32C,2.999994*%
%ADD33C,0.799998*%
%LNpcb-1*%
%LPD*%
G36*
X1601499Y716399D02*
Y003999D01*
X0*
Y717699*
X1595099*
X1597699Y720299*
X1601499Y716399*
G37*
%LNpcb-2*%
%LPC*%
G36*
X600799Y666399D02*
X580299D01*
Y648299*
X600799*
Y666399*
G37*
G36*
X1251699Y672499D02*
X1248299D01*
X1244899Y671899*
X1241699Y670499*
X1238799Y668599*
X1236399Y666199*
X1234499Y663299*
X1233099Y660099*
X1232499Y656699*
Y653299*
X1233099Y649899*
X1234499Y646699*
X1236399Y643799*
X1238799Y641399*
X1241699Y639499*
X1244899Y638099*
X1248299Y637499*
X1251699*
X1255099Y638099*
X1258299Y639499*
X1261199Y641399*
X1263599Y643799*
X1265499Y646699*
X1266899Y649899*
X1267499Y653299*
Y656699*
X1266899Y660099*
X1265499Y663299*
X1263599Y666199*
X1261199Y668599*
X1258299Y670499*
X1255099Y671899*
X1251699Y672499*
G37*
G36*
X351699D02*
X348299D01*
X344899Y671899*
X341699Y670499*
X338799Y668599*
X336399Y666199*
X334499Y663299*
X333099Y660099*
X332499Y656699*
Y653299*
X333099Y649899*
X334499Y646699*
X336399Y643799*
X338799Y641399*
X341699Y639499*
X344899Y638099*
X348299Y637499*
X351699*
X355099Y638099*
X358299Y639499*
X361199Y641399*
X363599Y643799*
X365499Y646699*
X366899Y649899*
X367499Y653299*
Y656699*
X366899Y660099*
X365499Y663299*
X363599Y666199*
X361199Y668599*
X358299Y670499*
X355099Y671899*
X351699Y672499*
G37*
G36*
X1017799Y666399D02*
X997299D01*
Y659699*
X996499Y659199*
X966899Y629599*
X961999*
Y609999*
X976099*
Y620399*
X1003799Y648099*
X1004899*
X1005499Y648299*
X1017799*
Y666399*
G37*
G36*
X1006699Y632599D02*
X1004999D01*
X10033Y632199*
X1001799Y631299*
X1000599Y630099*
X999699Y628599*
X999299Y626999*
Y625199*
X999699Y623599*
X1000599Y622099*
X1001799Y620899*
X10033Y619999*
X1004999Y619599*
X1006699*
X1006899*
X1026099*
X1060599Y585099*
Y564199*
X1090699*
Y594299*
X1069799*
X1033399Y630699*
X1031299Y632099*
X1028799Y632599*
X1006899*
X1006699*
G37*
G36*
X943199Y560499D02*
X923699D01*
Y546499*
Y545699*
Y531699*
X943199*
Y545699*
Y546499*
Y560499*
G37*
G36*
X519299Y588899D02*
X499299D01*
X495999Y588499*
X492899Y587199*
X490299Y585199*
X488299Y582599*
X487099Y579499*
X486599Y576299*
X487099Y572999*
X488299Y569899*
X490299Y567299*
X492899Y565299*
X493199Y565199*
Y553599*
X474399*
Y530999*
X505999*
Y546599*
X506099Y547199*
Y563599*
X519299*
X522499Y564099*
X525599Y565299*
X528199Y567299*
X530199Y569899*
X531499Y572999*
X531899Y576299*
X531499Y579499*
X530199Y582599*
X528199Y585199*
X525599Y587199*
X522499Y588499*
X519299Y588899*
G37*
G36*
X890299Y714799D02*
X710299D01*
Y679599*
X641399*
X638899Y679099*
X636799Y677699*
X606099Y646999*
X604699Y644899*
X604199Y642399*
Y601599*
X603599*
Y591199*
X583399Y570999*
X581999Y568899*
X581499Y566399*
Y481499*
X570599Y470499*
X563299*
X562699Y470399*
X552799*
Y464099*
X521699Y432999*
X518299*
Y479399*
X519399*
Y500999*
X504299*
Y479399*
X505299*
Y432999*
X492799*
Y428999*
X380299*
X379999Y431199*
X378699Y434199*
X376699Y436899*
X374099Y438899*
X371099Y440099*
X367799Y440599*
X364499Y440099*
X361499Y438899*
X358799Y436899*
X356799Y434199*
X355999Y432299*
X354699*
X353899Y434199*
X351799Y436899*
X349199Y438899*
X346199Y440099*
X3429Y440599*
X339599Y440099*
X336599Y438899*
X333999Y436899*
X331899Y434199*
X330699Y431199*
X330299Y427899*
Y417899*
X330699Y414599*
X331899Y411599*
X333999Y408999*
X336599Y406999*
X339599Y405699*
X3429Y405299*
X346199Y405699*
X349199Y406999*
X351799Y408999*
X353899Y411599*
X354699Y413499*
X355999*
X356799Y411599*
X358799Y408999*
X361099Y407299*
Y405799*
X281799Y326499*
X280399Y324399*
X279899Y321899*
Y300899*
X278699Y300199*
X276399Y297899*
X274699Y294999*
X273799Y291899*
Y288499*
X274699Y285399*
X276399Y282499*
X278699Y280199*
X281499Y278499*
X282199Y278299*
Y277099*
X281499Y276899*
X278699Y275199*
X276399Y272899*
X274699Y269999*
X273799Y266899*
Y263499*
X274699Y260399*
X276399Y257499*
X278699Y255199*
X281499Y253499*
X284699Y252699*
X287999*
X291199Y253499*
X294099Y255199*
X296399Y257499*
X297099Y258699*
X488699*
X491199Y259199*
X493299Y260599*
X531599Y298999*
X532999Y301099*
X533499Y303499*
Y370699*
X668799Y505999*
X670199Y508099*
X670699Y510499*
Y544299*
X695199Y568799*
X699899*
Y555499*
Y542799*
Y530899*
X685899*
X684199*
X682499Y530399*
X680999Y529599*
X679799Y528399*
X678899Y526899*
X678499Y525199*
Y523499*
X678899Y521799*
X679799Y520299*
X680999Y519099*
X681699Y518699*
Y517299*
X680999Y516899*
X679799Y515699*
X678899Y514199*
X678499Y512499*
Y510799*
X678899Y509099*
X679799Y507599*
X680999Y506399*
X681699Y505999*
Y504599*
X680999Y504199*
X679799Y502999*
X678899Y501499*
X678499Y499799*
Y498099*
X678899Y496399*
X679799Y494899*
X680899Y493799*
Y493399*
X680599Y492499*
X680099Y492399*
X677999Y490999*
X663399Y476399*
X661999Y474299*
X661499Y471799*
Y354499*
X634899Y327799*
X624599*
Y333799*
X589499*
Y308799*
X624599*
Y314799*
X637499*
X639999Y315299*
X642099Y316699*
X672599Y347199*
X673999Y349299*
X674499Y351799*
Y469099*
X685299Y479899*
X699899*
Y466599*
X721499*
Y479299*
Y491999*
Y504699*
Y517399*
Y530699*
X724599*
X725699Y530099*
X727299Y529599*
X729099*
X730699Y530099*
X732199Y530899*
X733399Y532199*
X734299Y533599*
X734699Y535299*
Y536999*
X734299Y538699*
X733399Y540199*
X732199Y541399*
X731699Y541699*
Y541799*
X731099Y542099*
X731499Y543399*
X735399*
X736399Y543599*
X736699*
X737299Y543799*
X737899Y543899*
X737999Y543999*
X738299*
X739799Y544899*
X740999Y5461*
X741899Y547599*
X742399Y549299*
Y550999*
X741899Y552699*
X740999Y554199*
X740399Y554799*
X740699Y556299*
X741699Y556499*
X743199Y557399*
X744399Y558599*
X745199Y560099*
X745699Y561699*
Y563499*
X745199Y565099*
X744399Y566599*
X743199Y567799*
X741699Y568699*
X739999Y569199*
X738299*
X737999Y569099*
X721499*
Y580899*
Y593599*
Y606299*
Y619599*
X756899*
X759399Y620099*
X761499Y621499*
X788699Y648699*
X890299*
Y653399*
X891499Y653899*
X912199Y633199*
X911399Y632099*
X909199Y632499*
X898999*
Y633099*
X877399*
Y619899*
X871099*
X870799*
X869099*
X867399Y619499*
X865899Y618599*
X864699Y617399*
X863899Y615899*
X863399Y614299*
Y612499*
X863899Y610899*
X864699Y609399*
X865899Y608199*
X867399Y607299*
X869099Y606899*
X870799*
X870999*
X877399*
Y593599*
Y581399*
X872599*
X872499*
X871599*
X869999Y580999*
X868499Y580099*
X867299Y578899*
X866399Y577399*
X865999Y575699*
Y573999*
X866399Y572299*
X867299Y570899*
X868499Y569599*
X869999Y568799*
X871599Y568299*
X873399*
X873899Y568499*
X877399*
Y555499*
Y542799*
Y530099*
Y517399*
Y504699*
Y491999*
Y479299*
Y466599*
X898999*
Y467199*
X923299*
X925699Y467699*
X927799Y469099*
X955799Y497099*
X957199Y499199*
X957699Y501699*
Y580799*
X958299*
Y600299*
X957699*
Y609999*
X958099*
Y629599*
X943999*
Y609999*
X944799*
Y600299*
X944199*
Y580799*
X944799*
Y504299*
X920599Y480099*
X898999*
Y492599*
X918199*
Y492499*
X919699Y491699*
X921399Y491199*
X923099*
X924799Y491699*
X926299Y492499*
X927499Y493699*
X928299Y495199*
X928799Y496899*
Y498599*
X928299Y500299*
X927499Y501799*
X926299Y502999*
X925799Y503299*
X925399Y503699*
X923299Y505099*
X920799Y505499*
X9144*
X913899Y506799*
X914799Y507699*
X915599Y509199*
X916099Y510899*
Y512599*
X915599Y514199*
X914799Y515699*
X913599Y516999*
X912099Y517799*
X910399Y518299*
X908699*
X908499Y518199*
X898999*
Y530699*
X908299*
X908699Y530599*
X910399*
X912099Y530999*
X913599Y531899*
X914799Y533099*
X915599Y534599*
X916099Y536299*
Y537999*
X915599Y539599*
X914799Y541099*
X913599Y542299*
Y542599*
X913799Y543699*
X9144Y543799*
X915899Y544699*
X917099Y545899*
X917999Y547399*
X918399Y548999*
Y550799*
X917999Y552399*
X917099Y553899*
X915899Y555099*
X9144Y555999*
X912699Y556499*
X910999*
X910699Y556399*
X898999*
Y568199*
Y581499*
X909499*
X909699*
X911499*
X913099Y581899*
X914599Y582799*
X915799Y583999*
X916699Y585499*
X917099Y587099*
Y588899*
X916699Y590499*
X915799Y591999*
X914599Y593199*
X913899Y593599*
Y595099*
X914599Y595499*
X915799Y596699*
X916699Y598199*
X917099Y599799*
Y601599*
X916699Y603199*
X915799Y604699*
X914599Y605899*
X913099Y606799*
X911499Y607199*
X909699*
X909399*
X898999*
Y619599*
X907099*
X907299Y619499*
X908899Y619099*
X910699*
X912299Y619499*
X913799Y620399*
X914999Y621599*
X915899Y623099*
X916299Y624699*
Y626499*
X916099Y627399*
X917199Y628099*
X926799Y618599*
Y600299*
X926199*
Y580799*
X926899*
Y578499*
X923699*
Y564499*
X943199*
Y578499*
X9398*
Y580799*
X940299*
Y600299*
X939699*
Y621199*
Y628299*
X984399Y672999*
X1019799*
X1022299Y673499*
X1024399Y674899*
X1043499Y693899*
X1060899*
X1070499Y684399*
Y683099*
X1068199Y680799*
X1066499Y677899*
X1065699Y674799*
Y671399*
X1066499Y668299*
X1068199Y665399*
X1070499Y663099*
X1073399Y661399*
X1076599Y660599*
X1079899*
X1083099Y661399*
X1085899Y663099*
X1088299Y665399*
X1089899Y668299*
X1090299Y669599*
X1091599*
X1091899Y668299*
X1093599Y665399*
X1095899Y663099*
X1098799Y661399*
X1101999Y660599*
X1105299*
X1108499Y661399*
X1111299Y663099*
X1113699Y665399*
X1115299Y668299*
X1115699Y669599*
X1116999*
X1117299Y668299*
X1118999Y665399*
X1121299Y663099*
X1124199Y661399*
X1127399Y660599*
X1130699*
X1133899Y661399*
X1136699Y663099*
X1139099Y665399*
X1140699Y668299*
X1141599Y671399*
Y674799*
X1140699Y677899*
X1139099Y680799*
X1136699Y683099*
X1133899Y684799*
X1130699Y685599*
X1127399*
X1124199Y684799*
X1121299Y683099*
X1118999Y680799*
X1117299Y677899*
X1116999Y676599*
X1115699*
X1115299Y677899*
X1113699Y680799*
X1111299Y683099*
X1108499Y684799*
X1105299Y685599*
X1101999*
X1098799Y684799*
X1095899Y683099*
X1093599Y680799*
X1091899Y677899*
X1091599Y676599*
X1090299*
X1089899Y677899*
X1088299Y680799*
X1085899Y683099*
X1083499Y684499*
Y686999*
X1082999Y689499*
X1081599Y691599*
X1080399Y692799*
X1080899Y693899*
X1148599*
X1230499Y611999*
Y471599*
X1228299Y4699*
X1226299Y467299*
X1225499Y465299*
X1224099*
X1223299Y467299*
X1221299Y4699*
X1218699Y471899*
X1215599Y473099*
X1212299Y473599*
X1209099Y473099*
X1205999Y471899*
X1203399Y4699*
X1201399Y467299*
X1200099Y464199*
X1199699Y460899*
Y450899*
X1200099Y447699*
X1201399Y444599*
X1203399Y441999*
X1205999Y439999*
X1209099Y438699*
X1212299Y438299*
X1215599Y438699*
X1218699Y439999*
X1221299Y441999*
X1223299Y444599*
X1224099Y446499*
X1225499*
X1226299Y444599*
X1228299Y441999*
X1230899Y439999*
X1233999Y438699*
X1237199Y438299*
X1240499Y438699*
X1243599Y439999*
X1246199Y441999*
X1248199Y444599*
X1249499Y447699*
X1249699Y449499*
X1304099*
X1393099Y360499*
Y318899*
X1367999Y293799*
X1359099*
X1358399Y294999*
X1355999Y297399*
X1353199Y298999*
X1352499Y299199*
Y300499*
X1353199Y300699*
X1355999Y302299*
X1358399Y304699*
X1359999Y307499*
X1360899Y310699*
Y313999*
X1359999Y317199*
X1358399Y320099*
X1355999Y322399*
X1353199Y323999*
X1349999Y324899*
X1346699*
X1343499Y323999*
X1340599Y322399*
X1338299Y320099*
X1337599Y318799*
X1295599*
X1285999Y328399*
X1283899Y329799*
X1281399Y330299*
X1108899*
X1035799Y403399*
X1033699Y404799*
X1031199Y405299*
X793899*
X767799Y431299*
X765699Y432699*
X763299Y433199*
X762299Y432999*
X762199*
X761899Y432899*
X760799Y432699*
X760599Y432599*
X760499*
X759099Y431699*
X757799Y430499*
X756999Y428999*
X756499Y427299*
Y425599*
X756999Y423899*
X757799Y422399*
X759099Y421199*
X760399Y420499*
X786599Y394199*
X788699Y392799*
X791199Y392299*
X1028599*
X1101599Y319299*
X1103699Y317899*
X1106199Y317399*
X1278699*
X1288399Y307799*
X1290499Y306399*
X1292899Y305899*
X1337599*
X1338299Y304699*
X1340599Y302299*
X1343499Y300699*
X1344199Y300499*
Y299199*
X1343499Y298999*
X1340599Y297399*
X1338299Y294999*
X1336599Y292199*
X1335799Y288999*
Y285699*
X1336599Y282499*
X1338299Y279699*
X1340599Y277299*
X1342299Y276399*
Y242699*
X1299699Y200099*
X1250499*
X1241999Y208599*
Y218299*
X1243399Y219699*
X1244999Y222499*
X1245199Y223199*
X1246499*
X1246599Y222499*
X1248299Y219699*
X1250599Y217299*
X1253499Y215699*
X1256699Y214799*
X1259999*
X1263199Y215699*
X1265999Y217299*
X1268399Y219699*
X127Y222499*
X1270899Y225699*
Y228999*
X127Y232199*
X1268399Y235099*
X1265999Y237399*
X1264799Y238099*
Y278399*
X1264299Y280899*
X1262899Y282999*
X1233899Y311899*
X1231799Y313299*
X1229399Y313799*
X1097399*
X1024399Y386799*
X1022299Y388299*
X1019799Y388699*
X779899*
X751299Y417299*
X749199Y418699*
X746799Y419199*
X745799Y418999*
X745699*
X745399*
X744299Y418699*
X744099Y418599*
X743999*
X742499Y417699*
X741299Y416499*
X740499Y414999*
X739999Y413399*
Y411599*
X740499Y409999*
X741299Y408499*
X742499Y407299*
X743799Y406499*
X772699Y377699*
X774799Y376299*
X777199Y375799*
X1017099*
X1090199Y302799*
X1092299Y301399*
X1094699Y300899*
X1226699*
X1251799Y275699*
Y238099*
X1250599Y237399*
X1248299Y235099*
X1246599Y232199*
X1246499Y231499*
X1245199*
X1244999Y232199*
X1243399Y235099*
X1240999Y237399*
X1238199Y238999*
X1234999Y239899*
X1231699*
X1228499Y238999*
X1225599Y237399*
X1223299Y235099*
X1222599Y233799*
X1211199*
X1210999Y235099*
X1213199Y235699*
X1215999Y237299*
X1218399Y239699*
X1219999Y242499*
X1220899Y245699*
Y248999*
X1219999Y252199*
X1218399Y255099*
X1215999Y257399*
X1213199Y258999*
X1209999Y259899*
X1206699*
X1203499Y258999*
X1200599Y257399*
X1198299Y255099*
X1196599Y252199*
X1195799Y248999*
Y245699*
X1196599Y242499*
X1198299Y239699*
X1200599Y237299*
X1203499Y235699*
X1205599Y235099*
X1205399Y233799*
X1036399*
X1028399Y241899*
X1027799Y242299*
Y256099*
X992799*
Y240099*
X938099Y185499*
X882499*
X880699Y187999*
X877999Y189999*
X874999Y191299*
X871699Y191699*
X866699*
X863399Y191299*
X860399Y189999*
X857799Y187999*
X855799Y185399*
X854499Y182299*
X854099Y179099*
X854399Y176699*
X853399Y175399*
X751999*
X751599Y176599*
X752799Y177299*
X755299Y179899*
X757399Y182999*
X758799Y186299*
X759499Y189899*
Y193599*
X758799Y197199*
X757399Y200499*
X755299Y203599*
X752799Y206199*
X749699Y208199*
X746299Y209599*
X742799Y210299*
X739099*
X735499Y209599*
X732199Y208199*
X729099Y206199*
X726499Y203599*
X724499Y200499*
X723099Y197199*
X722399Y193599*
Y189899*
X723099Y186299*
X724499Y182999*
X726499Y179899*
X729099Y177299*
X730199Y176599*
X729899Y175399*
X652899*
X562699Y265599*
Y327499*
X591199Y355999*
X601499*
X602099Y356099*
X625199*
Y381199*
X590099*
Y368899*
X588499*
X585999Y368399*
X583899Y366999*
X551699Y334799*
X550299Y332699*
X549799Y3302*
Y262899*
X550299Y260399*
X551699Y258299*
X645699Y164299*
X647799Y162899*
X650199Y162399*
X864699*
X867199Y162899*
X869299Y164299*
X870699Y166399*
X871699*
X874999Y166799*
X877999Y168099*
X880699Y170099*
X882499Y172599*
X940799*
X943299Y173099*
X945399Y174499*
X1001899Y230999*
X1015899*
X1016499Y230899*
X1021099*
X1029199Y222799*
X1031299Y221399*
X1033799Y220899*
X1222599*
X1223299Y219699*
X1225599Y217299*
X1228499Y215699*
X1229099Y215499*
Y205899*
X1229499Y203399*
X1230999Y201299*
X1243199Y189099*
X1245299Y187699*
X1247799Y187199*
X1302399*
X1304799Y187699*
X1306899Y189099*
X1353299Y235499*
X1354699Y237599*
X1355199Y239999*
Y276799*
X1355999Y277299*
X1358399Y279699*
X1359099Y280899*
X1370699*
X1373099Y281399*
X1375199Y282799*
X1404099Y311699*
X1405499Y313799*
X1405999Y316199*
Y363199*
X1405499Y365699*
X1404099Y367799*
X1311399Y460499*
X1309299Y461899*
X1306799Y462399*
X1249699*
X1249499Y464199*
X1248199Y467299*
X1246199Y4699*
X1243599Y471899*
X1243499*
Y510299*
X1244699Y510699*
X1246999Y507899*
X1250299Y505199*
X1254099Y503199*
X1258099Y501999*
X1262399Y501499*
X1266599Y501999*
X1270699Y503199*
X1274399Y505199*
X1277699Y507899*
X1280399Y511199*
X1282399Y514899*
X1283699Y518999*
X1284099Y523199*
Y528299*
X1283699Y532599*
X1282399Y536599*
X1280399Y540399*
X1277699Y543699*
X1274399Y546399*
X1270699Y548399*
X1266599Y549599*
X1262399Y549999*
X1258099Y549599*
X1254099Y548399*
X1250299Y546399*
X1246999Y543699*
X1244699Y540799*
X1243499Y541299*
Y614699*
X1242999Y617199*
X1241599Y619299*
X1155799Y704999*
X1153699Y706399*
X1151199Y706899*
X1040799*
X1038299Y706399*
X1036199Y704999*
X1017099Y685899*
X981699*
X979199Y685399*
X977099Y683999*
X929199Y636099*
X927599Y635999*
X916499Y647099*
X916999Y648299*
X934799*
Y666399*
X914299*
Y650999*
X913099Y650499*
X890299Y673299*
Y714799*
G37*
G36*
X1162099Y549999D02*
X1157799Y549599D01*
X1153699Y548399*
X1149999Y546399*
X1146699Y543699*
X1143999Y540399*
X1141999Y536599*
X1140799Y532599*
X1140399Y528299*
Y523199*
X1140799Y518999*
X1141999Y514899*
X1143999Y511199*
X1146699Y507899*
X1149999Y505199*
X1153699Y503199*
X1157799Y501999*
X1162099Y501499*
X1166299Y501999*
X1170399Y503199*
X1174099Y505199*
X1177399Y507899*
X1180099Y511199*
X1182099Y514899*
X1183299Y518999*
X1183699Y523199*
Y528299*
X1183299Y532599*
X1182099Y536599*
X1180099Y540399*
X1177399Y543699*
X1174099Y546399*
X1170399Y548399*
X1166299Y549599*
X1162099Y549999*
G37*
G36*
X548999Y553599D02*
X517399D01*
Y537999*
X517299Y537399*
Y535499*
X485499Y503699*
X484099Y501599*
X483999Y500999*
X481399*
Y498199*
X469499*
Y498799*
X449899*
Y484699*
X469499*
Y485199*
X481399*
Y479399*
X496499*
Y490799*
X496599Y491399*
Y496499*
X528399Y528299*
X529799Y530399*
X529899Y530999*
X548999*
Y553599*
G37*
G36*
X392899Y516999D02*
X388699Y516599D01*
X384599Y515299*
X380899Y513299*
X377599Y510599*
X374899Y507399*
X372899Y503599*
X371699Y499499*
X371199Y4953*
Y490199*
X371699Y485999*
X372899Y481899*
X374899Y478199*
X377599Y474899*
X380899Y472199*
X384599Y470199*
X388699Y468899*
X392899Y468499*
X397199Y468899*
X401199Y470199*
X404999Y472199*
X408299Y474899*
X410999Y478199*
X412999Y481899*
X414199Y485999*
X414599Y490199*
Y4953*
X414199Y499499*
X412999Y503599*
X410999Y507399*
X408299Y510599*
X404999Y513299*
X401199Y515299*
X397199Y516599*
X392899Y516999*
G37*
G36*
X292599D02*
X288399Y516599D01*
X284299Y515299*
X280599Y513299*
X277299Y510599*
X274599Y507399*
X272599Y503599*
X271299Y499499*
X270899Y4953*
Y490199*
X271299Y485999*
X272599Y481899*
X274599Y478199*
X277299Y474899*
X280599Y472199*
X284299Y470199*
X288399Y468899*
X292599Y468499*
X296799Y468899*
X300899Y470199*
X304699Y472199*
X307899Y474899*
X310599Y478199*
X312699Y481899*
X313899Y485999*
X314299Y490199*
Y4953*
X313899Y499499*
X312699Y503599*
X310599Y507399*
X307899Y510599*
X304699Y513299*
X300899Y515299*
X296799Y516599*
X292599Y516999*
G37*
G36*
X845199Y440299D02*
X831199D01*
Y436999*
X827499*
Y440299*
X813399*
Y420699*
X827499*
Y424099*
X831199*
Y420699*
X845199*
Y440299*
G37*
G36*
X8636Y470699D02*
X747899D01*
Y449099*
X849899*
Y440299*
X849199*
Y420699*
X863199*
Y440299*
X862899*
Y449099*
X8636*
Y470699*
G37*
G36*
X1309999Y389899D02*
X1306699D01*
X1303499Y388999*
X1300599Y387399*
X1298299Y385099*
X1296599Y382199*
X1295799Y378999*
Y375699*
X1296599Y372499*
X1298299Y369699*
X1300599Y367299*
X1303499Y365699*
X1306699Y364799*
X1309999*
X1313199Y365699*
X1315999Y367299*
X1318399Y369699*
X1319999Y372499*
X1320899Y375699*
Y378999*
X1319999Y382199*
X1318399Y385099*
X1315999Y387399*
X1313199Y388999*
X1309999Y389899*
G37*
G36*
X1209999D02*
X1206699D01*
X1203499Y388999*
X1200599Y387399*
X1198299Y385099*
X1196599Y382199*
X1195799Y378999*
Y375699*
X1196599Y372499*
X1198299Y369699*
X1200599Y367299*
X1203499Y365699*
X1206699Y364799*
X1209999*
X1213199Y365699*
X1215999Y367299*
X1218399Y369699*
X1219999Y372499*
X1220899Y375699*
Y378999*
X1219999Y382199*
X1218399Y385099*
X1215999Y387399*
X1213199Y388999*
X1209999Y389899*
G37*
G36*
X1159999Y359899D02*
X1156699D01*
X1153499Y358999*
X1150599Y357399*
X1148299Y355099*
X1146599Y352199*
X1145799Y348999*
Y345699*
X1146599Y342499*
X1148299Y339699*
X1150599Y337299*
X1153499Y335699*
X1156699Y334799*
X1159999*
X1163199Y335699*
X1165999Y337299*
X11684Y339699*
X1169999Y342499*
X1170899Y345699*
Y348999*
X1169999Y352199*
X11684Y355099*
X1165999Y357399*
X1163199Y358999*
X1159999Y359899*
G37*
G36*
X742799Y365199D02*
X739099D01*
X735499Y364499*
X732199Y363099*
X729099Y361099*
X726499Y358499*
X724499Y355499*
X723099Y352099*
X722399Y348499*
Y344899*
X723099Y341299*
X724499Y337899*
X726499Y334899*
X729099Y332299*
X732199Y330299*
X735499Y328899*
X739099Y328099*
X742799*
X746299Y328899*
X749699Y330299*
X752799Y332299*
X755299Y334899*
X757399Y337899*
X758799Y341299*
X759499Y344899*
Y348499*
X758799Y352099*
X757399Y355499*
X755299Y358499*
X752799Y361099*
X749699Y363099*
X746299Y364499*
X742799Y365199*
G37*
G36*
X1028499Y303399D02*
X993399D01*
Y278299*
X1028499*
Y303399*
G37*
G36*
X1159999Y294899D02*
X1156699D01*
X1153499Y293999*
X1150599Y292399*
X1148299Y289999*
X1146599Y287199*
X1145799Y283999*
Y280699*
X1146599Y277499*
X1148299Y274699*
X1150599Y272299*
X1153499Y270699*
X1156699Y269799*
X1159999*
X1163199Y270699*
X1165999Y272299*
X11684Y274699*
X1169999Y277499*
X1170899Y280699*
Y283999*
X1169999Y287199*
X11684Y289999*
X1165999Y292399*
X1163199Y293999*
X1159999Y294899*
G37*
G36*
X1309999Y259899D02*
X1306699D01*
X1303499Y258999*
X1300599Y257399*
X1298299Y255099*
X1296599Y252199*
X1295799Y248999*
Y245699*
X1296599Y242499*
X1298299Y239699*
X1300599Y237299*
X1303499Y235699*
X1306699Y234799*
X1309999*
X1313199Y235699*
X1315999Y237299*
X1318399Y239699*
X1319999Y242499*
X1320899Y245699*
Y248999*
X1319999Y252199*
X1318399Y255099*
X1315999Y257399*
X1313199Y258999*
X1309999Y259899*
G37*
G36*
X477999Y242699D02*
X474699D01*
X471499Y241899*
X468699Y240199*
X466399Y237899*
X464699Y234999*
X463799Y231899*
Y228499*
X464699Y225399*
X466399Y222499*
X468699Y220199*
X471499Y218499*
X474699Y217699*
X477999*
X481199Y218499*
X484099Y220199*
X486399Y222499*
X488099Y225399*
X488899Y228499*
Y231899*
X488099Y234999*
X486399Y237899*
X484099Y240199*
X481199Y241899*
X477999Y242699*
G37*
G36*
X871699Y369499D02*
X866699D01*
X863399Y369099*
X860399Y367799*
X857799Y365799*
X855799Y363199*
X854499Y360099*
X854099Y356899*
X854499Y353599*
X855799Y350499*
X857799Y347899*
X860399Y345899*
X862899Y344799*
Y343499*
X860399Y342399*
X857799Y340399*
X855799Y337799*
X854499Y334699*
X854099Y331499*
X854499Y328199*
X855799Y325099*
X857799Y322499*
X860399Y320499*
X862899Y319399*
Y318099*
X860399Y316999*
X857799Y314999*
X855799Y312399*
X854499Y309299*
X854099Y305999*
X854499Y302799*
X855799Y299699*
X857799Y297099*
X860399Y295099*
X862899Y293999*
Y292699*
X860399Y291599*
X857799Y289599*
X855799Y286999*
X854499Y283899*
X854099Y280699*
X854499Y277399*
X855799Y274299*
X857799Y271699*
X860399Y269699*
X862899Y268599*
Y267299*
X860399Y266199*
X857799Y264199*
X855799Y261599*
X854499Y258499*
X854099Y255199*
X854499Y251999*
X855799Y248899*
X857799Y246299*
X860399Y244299*
X862899Y243199*
Y241899*
X860399Y240799*
X857799Y238799*
X855799Y236199*
X854499Y233099*
X854099Y229899*
X854499Y226599*
X855799Y223499*
X857799Y220899*
X860399Y218899*
X863399Y217599*
X866699Y217199*
X871699*
X874999Y217599*
X877999Y218899*
X880699Y220899*
X882699Y223499*
X883899Y226599*
X884399Y229899*
X883899Y233099*
X882699Y236199*
X880699Y238799*
X877999Y240799*
X875499Y241899*
Y243199*
X877999Y244299*
X880699Y246299*
X882699Y248899*
X883899Y251999*
X884399Y255199*
X883899Y258499*
X882699Y261599*
X880699Y264199*
X877999Y266199*
X875499Y267299*
Y268599*
X877999Y269699*
X880699Y271699*
X882699Y274299*
X883899Y277399*
X884399Y280699*
X883899Y283899*
X882699Y286999*
X880699Y289599*
X877999Y291599*
X875499Y292699*
Y293999*
X877999Y295099*
X880699Y297099*
X882699Y299699*
X883899Y302799*
X884399Y305999*
X883899Y309299*
X882699Y312399*
X880699Y314999*
X877999Y316999*
X875499Y318099*
Y319399*
X877999Y320499*
X880699Y322499*
X882699Y325099*
X883899Y328199*
X884399Y331499*
X883899Y334699*
X882699Y337799*
X880699Y340399*
X877999Y342399*
X875499Y343499*
Y344799*
X877999Y345899*
X880699Y347899*
X882699Y350499*
X883899Y353599*
X884399Y356899*
X883899Y360099*
X882699Y363199*
X880699Y365799*
X877999Y367799*
X874999Y369099*
X871699Y369499*
G37*
G36*
X427999Y212699D02*
X424699D01*
X421499Y211899*
X418699Y210199*
X416399Y207899*
X414699Y204999*
X413799Y201899*
Y198499*
X414699Y195399*
X416399Y192499*
X418699Y190199*
X421499Y188499*
X424699Y187699*
X427999*
X431199Y188499*
X434099Y190199*
X436399Y192499*
X438099Y195399*
X438899Y198499*
Y201899*
X438099Y204999*
X436399Y207899*
X434099Y210199*
X431199Y211899*
X427999Y212699*
G37*
G36*
X327999D02*
X324699D01*
X321499Y211899*
X318699Y210199*
X316399Y207899*
X314699Y204999*
X313899Y201899*
Y198499*
X314699Y195399*
X316399Y192499*
X318699Y190199*
X321499Y188499*
X324699Y187699*
X327999*
X331199Y188499*
X334099Y190199*
X336399Y192499*
X338099Y195399*
X338899Y198499*
Y201899*
X338099Y204999*
X336399Y207899*
X334099Y210199*
X331199Y211899*
X327999Y212699*
G37*
G36*
X205099Y150999D02*
X201799D01*
X198599Y150099*
X195699Y148499*
X193399Y146099*
X191699Y143299*
X190899Y140099*
Y136799*
X191699Y133599*
X193399Y130699*
X195699Y128399*
X198599Y126699*
X201799Y125899*
X205099*
X208299Y126699*
X211099Y128399*
X213499Y130699*
X215099Y133599*
X215999Y136799*
Y140099*
X215099Y143299*
X213499Y146099*
X211099Y148499*
X208299Y150099*
X205099Y150999*
G37*
G36*
X140099D02*
X136799D01*
X133599Y150099*
X130699Y148499*
X128399Y146099*
X126699Y143299*
X125899Y140099*
Y136799*
X126699Y133599*
X128399Y130699*
X130699Y128399*
X133599Y126699*
X136799Y125899*
X140099*
X143299Y126699*
X146099Y128399*
X148499Y130699*
X150099Y133599*
X150999Y136799*
Y140099*
X150099Y143299*
X148499Y146099*
X146099Y148499*
X143299Y150099*
X140099Y150999*
G37*
G36*
X1430399Y146599D02*
X1427099D01*
X1423899Y145799*
X1421099Y144099*
X1418699Y141799*
X1417099Y138899*
X1416199Y135699*
Y132399*
X1417099Y129199*
X1418699Y126399*
X1421099Y123999*
X1423899Y122399*
X1427099Y121499*
X1430399*
X1433599Y122399*
X1436399Y123999*
X1438799Y126399*
X1440399Y129199*
X1441299Y132399*
Y135699*
X1440399Y138899*
X1438799Y141799*
X1436399Y144099*
X1433599Y145799*
X1430399Y146599*
G37*
G36*
X1365399D02*
X1362099D01*
X13589Y145799*
X1356099Y144099*
X1353699Y141799*
X1352099Y138899*
X1351199Y135699*
Y132399*
X1352099Y129199*
X1353699Y126399*
X1356099Y123999*
X13589Y122399*
X1362099Y121499*
X1365399*
X1368599Y122399*
X1371499Y123999*
X1373799Y126399*
X1375399Y129199*
X1376299Y132399*
Y135699*
X1375399Y138899*
X1373799Y141799*
X1371499Y144099*
X1368599Y145799*
X1365399Y146599*
G37*
G36*
X1241199Y135699D02*
X1237899D01*
X1234699Y134899*
X1231799Y133199*
X1229499Y130899*
X1227799Y127999*
X1226999Y124799*
Y121499*
X1227799Y118299*
X1229499Y115499*
X1231799Y113199*
X1234699Y111499*
X1237899Y110599*
X1241199*
X1244399Y111499*
X1247199Y113199*
X1249599Y115499*
X1251199Y118299*
X1252099Y121499*
Y124799*
X1251199Y127999*
X1249599Y130899*
X1247199Y133199*
X1244399Y134899*
X1241199Y135699*
G37*
G36*
X1176199D02*
X1172899D01*
X1169699Y134899*
X1166799Y133199*
X1164499Y130899*
X1162799Y127999*
X1161999Y124799*
Y121499*
X1162799Y118299*
X1164499Y115499*
X1166799Y113199*
X1169699Y111499*
X1172899Y110599*
X1176199*
X1179399Y111499*
X1182199Y113199*
X1184599Y115499*
X1186199Y118299*
X1187099Y121499*
Y124799*
X1186199Y127999*
X1184599Y130899*
X1182199Y133199*
X1179399Y134899*
X1176199Y135699*
G37*
G36*
X379099Y074199D02*
X375799D01*
X372599Y073399*
X369699Y071699*
X367399Y069399*
X365699Y066499*
X364899Y063299*
Y059999*
X365699Y056799*
X367399Y053999*
X369699Y051599*
X372599Y049999*
X375799Y049099*
X379099*
X382299Y049999*
X385099Y051599*
X387499Y053999*
X389099Y056799*
X389999Y059999*
Y063299*
X389099Y066499*
X387499Y069399*
X385099Y071699*
X382299Y073399*
X379099Y074199*
G37*
G36*
X314099D02*
X310799D01*
X307599Y073399*
X304699Y071699*
X302399Y069399*
X300699Y066499*
X299899Y063299*
Y059999*
X300699Y056799*
X302399Y053999*
X304699Y051599*
X307599Y049999*
X310799Y049099*
X314099*
X317299Y049999*
X320099Y051599*
X322499Y053999*
X324099Y056799*
X324999Y059999*
Y063299*
X324099Y066499*
X322499Y069399*
X320099Y071699*
X317299Y073399*
X314099Y074199*
G37*
G36*
X1501699Y077499D02*
X1498299D01*
X1494899Y076899*
X1491699Y075499*
X1488799Y073599*
X1486399Y071199*
X1484499Y068299*
X1483099Y065099*
X1482499Y061699*
Y058299*
X1483099Y054899*
X1484499Y051699*
X1486399Y048799*
X1488799Y046399*
X1491699Y044499*
X1494899Y043099*
X1498299Y042499*
X1501699*
X1505099Y043099*
X1508299Y044499*
X1511199Y046399*
X1513599Y048799*
X1515499Y051699*
X1516899Y054899*
X1517499Y058299*
Y061699*
X1516899Y065099*
X1515499Y068299*
X1513599Y071199*
X1511199Y073599*
X1508299Y075499*
X1505099Y076899*
X1501699Y077499*
G37*
G36*
X101699D02*
X098299D01*
X094899Y076899*
X091699Y075499*
X088799Y073599*
X086399Y071199*
X084499Y068299*
X083099Y065099*
X082499Y061699*
Y058299*
X083099Y054899*
X084499Y051699*
X086399Y048799*
X088799Y046399*
X091699Y044499*
X094899Y043099*
X098299Y042499*
X101699*
X105099Y043099*
X108299Y044499*
X111199Y046399*
X113599Y048799*
X115499Y051699*
X116899Y054899*
X117499Y058299*
Y061699*
X116899Y065099*
X115499Y068299*
X113599Y071199*
X111199Y073599*
X108299Y075499*
X105099Y076899*
X101699Y077499*
G37*
%LNpcb-3*%
%LPD*%
G36*
X710299Y648699D02*
X768699D01*
X769199Y647499*
X754199Y632499*
X721499*
Y633099*
X699899*
Y619799*
X676899*
X674399Y619399*
X672299Y617999*
X652599Y598299*
X635699*
Y601599*
X635399*
Y611199*
X636099*
Y630799*
X622099*
Y611199*
X622399*
Y601599*
X621599*
Y581999*
X622199*
Y565299*
X620599Y563699*
X619299Y561399*
X618599Y558899*
Y556199*
X619299Y553699*
X620599Y551399*
X622499Y549499*
X624799Y548199*
X627299Y547499*
X629999*
X632499Y548199*
X634799Y549499*
X636699Y551399*
X637999Y553699*
X638699Y556199*
Y558899*
X637999Y561399*
X636699Y563699*
X635099Y565299*
Y581999*
X635699*
Y585299*
X655299*
X657799Y585799*
X659899Y587199*
X679599Y606899*
X684799*
X685299Y605599*
X684399Y604699*
X683499Y603199*
X683099Y601599*
Y599799*
X683499Y598199*
X684399Y596699*
X685399Y595699*
X685099Y594699*
X684899Y594399*
X684499*
X681999Y593999*
X679899Y592599*
X645699Y558299*
X644299Y556199*
X643799Y553699*
Y527199*
X595799Y479199*
X594499Y479699*
Y563699*
X612799Y581999*
X617699*
Y601599*
X617099*
Y639699*
X643999Y666599*
X662099*
X663299Y666399*
Y665399*
Y649099*
X644999Y630799*
X640099*
Y611199*
X654099*
Y621599*
X680199Y6477*
X680599Y648299*
X683799*
Y665399*
Y666399*
X684999Y666599*
X710299*
Y648699*
G37*
G36*
X492799Y411399D02*
X526299D01*
X526799Y410299*
X519299Y402699*
X422399*
X419999Y402199*
X417899Y400799*
X379399Y362399*
X377999Y362699*
X374699*
X371499Y361899*
X368699Y360199*
X366399Y357899*
X364699Y354999*
X363799Y351899*
Y348499*
X364699Y345399*
X366399Y342499*
X368699Y340199*
X371499Y338499*
X374699Y337699*
X377999*
X381199Y338499*
X384099Y340199*
X386399Y342499*
X388099Y345399*
X388299Y345999*
X389499*
X389699Y345399*
X391399Y342499*
X3937Y340199*
X394899Y339499*
Y327899*
X363699Y296699*
X297099*
X296399Y297899*
X294099Y300199*
X292899Y300899*
Y319299*
X372099Y398499*
X373499Y400599*
X373999Y403099*
Y406899*
X374099Y406999*
X376699Y408999*
X378699Y411599*
X379999Y414599*
X380199Y416099*
X492799*
Y411399*
G37*
G36*
X657699Y523099D02*
Y513199D01*
X522499Y377999*
X521099Y375899*
X520599Y373399*
Y306199*
X485999Y271699*
X297099*
X296399Y272899*
X294099Y275199*
X291199Y276899*
X290599Y277099*
Y278299*
X291199Y278499*
X294099Y280199*
X296399Y282499*
X297099Y283699*
X366399*
X368899Y284199*
X370999Y285599*
X405999Y320599*
X407399Y322699*
X407899Y325199*
Y339499*
X409099Y340199*
X411399Y342499*
X413099Y345399*
X413899Y348499*
Y351899*
X413099Y354999*
X411399Y357899*
X409099Y360199*
X406199Y361899*
X402999Y362699*
X399899*
X399399Y363399*
X399099Y363799*
X425099Y389799*
X521999*
X524399Y390299*
X526499Y391699*
X654799Y519899*
X656199Y521999*
X656499Y523299*
X657699Y523099*
G37*
%LNpcb-4*%
%LPC*%
G36*
X327999Y342699D02*
X324699D01*
X321499Y341899*
X318699Y340199*
X316399Y337899*
X314699Y334999*
X313899Y331899*
Y328499*
X314699Y325399*
X316399Y322499*
X318699Y320199*
X321499Y318499*
X324699Y317699*
X327999*
X331199Y318499*
X334099Y320199*
X336399Y322499*
X338099Y325399*
X338899Y328499*
Y331899*
X338099Y334999*
X336399Y337899*
X334099Y340199*
X331199Y341899*
X327999Y342699*
G37*
G36*
X427999D02*
X424699D01*
X421499Y341899*
X418699Y340199*
X416399Y337899*
X414699Y334999*
X413799Y331899*
Y328499*
X414699Y325399*
X416399Y322499*
X418699Y320199*
X421499Y318499*
X424699Y317699*
X427999*
X431199Y318499*
X434099Y320199*
X436399Y322499*
X438099Y325399*
X438899Y328499*
Y331899*
X438099Y334999*
X436399Y337899*
X434099Y340199*
X431199Y341899*
X427999Y342699*
G37*
G36*
X477999Y307699D02*
X474699D01*
X471499Y306899*
X468699Y305199*
X466399Y302899*
X464699Y299999*
X463799Y296899*
Y293499*
X464699Y290399*
X466399Y287499*
X468699Y285199*
X471499Y283499*
X474699Y282699*
X477999*
X481199Y283499*
X484099Y285199*
X486399Y287499*
X488099Y290399*
X488899Y293499*
Y296899*
X488099Y299999*
X486399Y302899*
X484099Y305199*
X481199Y306899*
X477999Y307699*
G37*
%LNpcb-5*%
%LPD*%
G54D10*
X933499Y5207D03*
Y538699D03*
Y553499D03*
Y5715D03*
X562599Y463299D03*
Y481299D03*
X459699Y491699D03*
Y473699D03*
G54D11*
X792499Y565099D03*
G54D12*
X710699Y486399D03*
Y638799D03*
Y626099D03*
Y613399D03*
Y600699D03*
Y587999D03*
Y575299D03*
Y562599D03*
Y549899D03*
Y537199D03*
Y524499D03*
Y511799D03*
Y499099D03*
Y473699D03*
X888199D03*
Y486399D03*
Y499099D03*
Y511799D03*
Y524499D03*
Y537199D03*
Y549899D03*
Y562599D03*
Y575299D03*
Y587999D03*
Y600699D03*
Y613399D03*
Y626099D03*
Y638799D03*
G54D13*
X742299Y459899D03*
X754999D03*
X767699D03*
X780399D03*
X793099D03*
X805799D03*
X818499D03*
X831199D03*
X843899D03*
X856599D03*
G54D14*
X647099Y620999D03*
X629099D03*
X628699Y591799D03*
X610599D03*
X951199Y590599D03*
X933199D03*
X968999Y619799D03*
X950999D03*
X802399Y430499D03*
X820399D03*
X856199D03*
X8382D03*
G54D15*
X533199Y542299D03*
X490199D03*
G54D16*
X511799Y422199D03*
G54D17*
X488899Y490199D03*
X511799D03*
X534699D03*
G54D18*
X1007599Y702299D03*
X924599Y657299D03*
Y702299D03*
X1007599Y657299D03*
X673599Y702299D03*
X590599Y657299D03*
Y702299D03*
X673599Y657299D03*
G54D19*
X511499Y422599D02*
X511799Y422899D01*
Y490199*
X710699Y537199D02*
X727099D01*
X728099Y536199*
X728199*
X710699Y549899D02*
X735399D01*
X735699Y550099*
X735799*
X746799Y412799D02*
X777199Y382299D01*
X763299Y426699D02*
X791199Y398799D01*
X777199Y382299D02*
X1019799D01*
X1094699Y307299*
X1229399*
X1106199Y323799D02*
X1281399D01*
X1031199Y398799D02*
X1106199Y323799D01*
X791199Y398799D02*
X1031199D01*
X1229399Y307299D02*
X1258299Y278399D01*
Y227399D02*
Y278399D01*
X1348699Y239999D02*
Y286899D01*
X1348299Y287399D02*
X1348699Y286899D01*
X1302399Y193699D02*
X1348699Y239999D01*
X1247799Y193699D02*
X1302399D01*
X1235499Y205899D02*
X1247799Y193699D01*
X1235499Y205899D02*
Y225099D01*
X1233299Y227399D02*
X1235499Y225099D01*
X1281399Y323799D02*
X1292899Y312399D01*
X1348299*
X869199Y179099D02*
X940799D01*
X1005299Y243499*
X864699Y174599D02*
X869199Y179099D01*
X864699Y168899D02*
Y174599D01*
X650199Y168899D02*
X864699D01*
X556299Y262899D02*
X650199Y168899D01*
X869999Y613399D02*
D01*
X888199D02*
D01*
X869999D02*
X888199D01*
X710699Y562599D02*
X739099D01*
X710699D02*
D01*
X739099D02*
D01*
X422399Y396199D02*
X521999D01*
X650199Y524499*
X684499Y587999D02*
X710699D01*
X650199Y553699D02*
X684499Y587999D01*
X650199Y524499D02*
Y553699D01*
X664199Y546999D02*
X692499Y575299D01*
X664199Y510499D02*
Y546999D01*
X692499Y575299D02*
X710699D01*
X587999Y478799D02*
Y566399D01*
X610599Y589099*
X563299Y463999D02*
X573199D01*
X587999Y478799*
X562599Y463299D02*
X563299Y463999D01*
X376399Y350199D02*
X422399Y396199D01*
X527099Y373399D02*
X664199Y510499D01*
X527099Y303499D02*
Y373399D01*
X286399Y265199D02*
X488699D01*
X527099Y303499*
X601499Y362399D02*
X607699Y368599D01*
X556299Y262899D02*
Y3302D01*
X588499Y362399D02*
X601499D01*
X556299Y3302D02*
X588499Y362399D01*
X367499Y422699D02*
X367799Y422899D01*
X286399Y321899D02*
X367499Y403099D01*
X286399Y290199D02*
Y321899D01*
X367499Y403099D02*
Y422699D01*
X689599Y600699D02*
X710699D01*
X689599D02*
D01*
X710699D02*
D01*
X684999Y498999D02*
X685099D01*
X710699D02*
Y499099D01*
X685099Y498999D02*
X710699D01*
X685099Y511699D02*
X710699D01*
Y511799*
X684999Y511699D02*
X685099D01*
X710699Y524399D02*
Y524499D01*
X685099Y524399D02*
X710699D01*
X684999D02*
X685099D01*
X682599Y486399D02*
X710699D01*
X667999Y351799D02*
Y471799D01*
X682599Y486399*
X637499Y321299D02*
X667999Y351799D01*
X607099Y321299D02*
X637499D01*
X888199Y549899D02*
D01*
X911799*
X911899*
X888299Y537099D02*
X909499D01*
X888199Y537199D02*
X888299Y537099D01*
X909499D02*
X909599D01*
X888299Y511699D02*
X909499D01*
X909599*
X888199Y511799D02*
X888299Y511699D01*
X922099Y497799D02*
X922299D01*
X888199Y499099D02*
X920799D01*
X922099Y497799*
X872599Y574899D02*
X887899D01*
X888199Y575299*
X872499Y574899D02*
X872599D01*
X368099Y422599D02*
X511499D01*
X401399Y325199D02*
Y350199D01*
X286399Y290199D02*
X366399D01*
X401399Y325199*
X1005299Y243499D02*
X1010299D01*
X1016499Y237299*
X1033799Y227399D02*
X1233299D01*
X1016499Y237299D02*
X1023799D01*
X1033799Y227399*
X1348299Y287399D02*
X1370699D01*
X1399499Y316199D02*
Y363199D01*
X1370699Y287399D02*
X1399499Y316199D01*
X1237199Y455899D02*
X1306799D01*
X1399499Y363199*
X1063599Y700399D02*
X1151199D01*
X1236999Y456199D02*
Y614699D01*
X1151199Y700399D02*
X1236999Y614699D01*
Y456199D02*
X1237199Y455899D01*
X511799Y422199D02*
X520099D01*
X511499Y422599D02*
X511799Y422199D01*
X367799Y422899D02*
X368099Y422599D01*
X559899Y463299D02*
X562599D01*
X981699Y679399D02*
X1019799D01*
X933199Y621199D02*
Y630999D01*
X981699Y679399*
X1076999Y674299D02*
Y686999D01*
X1040799Y700399D02*
X1063599D01*
X1076999Y674299D02*
X1078199Y6731D01*
X1063599Y700399D02*
X1076999Y686999D01*
X1005799Y626099D02*
X1028799D01*
X1075699Y579199*
X909199Y626099D02*
X909699Y625599D01*
X888199Y626099D02*
X909199D01*
X909699Y625599D02*
X909799D01*
X881399Y6731D02*
X933199Y621199D01*
X803899Y6731D02*
X881399D01*
X933199Y590599D02*
Y621199D01*
X910599Y587999D02*
D01*
X888199D02*
D01*
X910599*
X888199Y600699D02*
X910599D01*
X888199D02*
D01*
X1019799Y679399D02*
X1040799Y700399D01*
X610599Y642399D02*
X641399Y6731D01*
X803899*
X951199Y501699D02*
Y590599D01*
X923299Y473699D02*
X951199Y501699D01*
X888199Y473699D02*
X923299D01*
X933299Y571599D02*
Y590399D01*
X933199Y590599D02*
X933299Y590399D01*
Y571599D02*
X933499Y5715D01*
Y538699D02*
Y553499D01*
X756899Y626099D02*
X803899Y6731D01*
X710699Y626099D02*
X756899D01*
X610599Y591799D02*
Y642399D01*
Y589099D02*
Y591799D01*
X628699Y557499D02*
Y591799D01*
X655299D02*
X676899Y613399D01*
X628699Y591799D02*
X655299D01*
X676899Y613399D02*
X710699D01*
X675599Y652299D02*
Y657899D01*
X1004899Y654599D02*
X1007599Y657299D01*
X968999Y619799D02*
Y622499D01*
X1001099Y654599*
X1004899*
X647099Y623799D02*
X675599Y652299D01*
X647099Y620999D02*
Y623799D01*
X628899Y617999D02*
X629099Y618299D01*
X628699Y591799D02*
X628899Y591999D01*
Y617999*
X629099Y618299D02*
Y620999D01*
X820399Y430499D02*
X8382D01*
X856399Y430699D02*
Y459699D01*
X856199Y430499D02*
X856399Y430699D01*
Y459699D02*
X856599Y459899D01*
X951199Y590599D02*
Y615699D01*
X520099Y422199D02*
X559199Y461299D01*
Y462599*
X559899Y463299*
X459699Y491699D02*
X487699D01*
X488899Y490499*
Y490199D02*
Y490499D01*
X490099Y499199D02*
X523799Y532799D01*
Y537399*
X490099Y491399D02*
Y499199D01*
X523799Y537399D02*
X528699Y542299D01*
X533199*
X488899Y490199D02*
X490099Y491399D01*
X499699Y547199D02*
Y570599D01*
X494699Y542299D02*
X499699Y547199D01*
X490199Y542299D02*
X494699D01*
X505399Y576299D02*
X509299D01*
X499699Y570599D02*
X505399Y576299D01*
G54D20*
X869199Y179099D03*
Y204399D03*
Y229899D03*
Y255199D03*
Y280699D03*
Y305999D03*
Y331499D03*
Y356899D03*
G54D21*
X740899Y191699D03*
Y346699D03*
G54D22*
X1348299Y287399D03*
X1158299Y347399D03*
X1348299Y312399D03*
X1198299Y282399D03*
X1158299D03*
X1198299Y347399D03*
X1308299Y247399D03*
X1208299D03*
X1308299Y377399D03*
X1208299D03*
X1233299Y227399D03*
X1258299D03*
X1283299D03*
X1348299Y337399D03*
X1052799Y6731D03*
X1078199D03*
X1103599D03*
X1128999D03*
X286399Y290199D03*
X476399Y230199D03*
X286399Y265199D03*
X436399Y295199D03*
X476399D03*
X436399Y230199D03*
X326399Y3302D03*
X426399D03*
X326399Y200199D03*
X426399D03*
X401399Y350199D03*
X376399D03*
X351399D03*
X286399Y240199D03*
G54D23*
X138399Y183399D03*
X203399D03*
Y138399D03*
X138399D03*
X312399Y106699D03*
X377399D03*
Y061699D03*
X312399D03*
X1363799Y179099D03*
X1428799D03*
Y134099D03*
X1363799D03*
X1239499Y078199D03*
X1174499D03*
Y123199D03*
X1239499D03*
G54D24*
X1075699Y579199D03*
G54D25*
X1075699Y505499D03*
G54D26*
X628699Y557499D03*
Y539699D03*
G54D27*
X509299Y576299D03*
Y636299D03*
G54D28*
X458299Y609299D03*
G54D29*
X392899Y492799D03*
X292599D03*
X1262399Y525799D03*
X1162099D03*
G54D30*
X367799Y422899D03*
X3429D03*
X317999D03*
X1237199Y455899D03*
X1212299D03*
X1187499D03*
G54D31*
X1010299Y243499D03*
X1010899Y290799D03*
Y337799D03*
X607699Y368599D03*
X607099Y321299D03*
Y274299D03*
G54D32*
X349999Y654999D03*
X1249999D03*
X099999Y059999D03*
X1499999D03*
G54D33*
X728199Y536199D03*
X735799Y550099D03*
X746599Y412499D03*
X763099Y426499D03*
X869999Y613399D03*
X739099Y562599D03*
X689599Y600699D03*
X684999Y498999D03*
Y511699D03*
Y524399D03*
X922299Y497799D03*
X909599Y537099D03*
Y511699D03*
X911899Y549899D03*
X872499Y574899D03*
X1005799Y626099D03*
X909799Y625599D03*
X910599Y587999D03*
Y600699D03*
M02*