%FSTAX24Y24*%
%MOMM*%
%SFA1B1*%

%IPPOS*%
%ADD19C,0.759998*%
%ADD20O,2.499995X1.999996*%
%ADD21C,3.199994*%
%ADD22C,1.999996*%
%ADD23C,1.999996*%
%ADD24R,2.499995X2.499995*%
%ADD25C,2.499995*%
%ADD26C,1.499997*%
%ADD27O,3.999992X1.999996*%
%ADD28O,1.999996X3.999992*%
%ADD29O,3.809992X4.319991*%
%ADD30O,1.999996X2.999994*%
%ADD31R,2.999994X1.999996*%
%ADD32C,2.999994*%
%ADD33C,0.799998*%
%LNpcb-1*%
%LPD*%
G36*
X1601499Y712499D02*
Y0D01*
X0*
Y713699*
X710299*
Y648699*
X814399*
X814899Y647499*
X735299Y567999*
X735099Y567799*
X733899Y566599*
X732999Y565099*
X732599Y563499*
Y561699*
X732999Y560099*
X733899Y558599*
X734599Y557899*
X734199Y556499*
X733299Y556199*
X731799Y555399*
X730599Y554199*
X729699Y552699*
X729299Y550999*
Y549299*
X729699Y547599*
X730599Y5461*
X731799Y544899*
X733299Y543999*
X756599Y520799*
Y427599*
X756499Y427299*
Y425599*
X756999Y423899*
X757799Y422399*
X759099Y421199*
X760499Y420399*
X762199Y419899*
X763899*
X765599Y420399*
X767099Y421199*
X768299Y422399*
X769199Y423899*
X769599Y425599*
Y427299*
X769499Y427599*
Y523399*
X768999Y525899*
X767599Y527999*
X741199Y554499*
X740599Y554899*
X740799Y556299*
X741699Y556499*
X743199Y557399*
X744399Y558599*
X744499Y5588*
X834399Y648699*
X890299*
Y697099*
X1130199*
X1205899Y621399*
Y471799*
X1203399Y4699*
X1201399Y467299*
X1200099Y464199*
X1199699Y460899*
Y450899*
X1200099Y447699*
X1201399Y444599*
X1203399Y441999*
X1205999Y439999*
X1209099Y438699*
X1212299Y438299*
X1215599Y438699*
X1218699Y439999*
X1221299Y441999*
X1223299Y444599*
X1224099Y446499*
X1225499*
X1226299Y444599*
X1228299Y441999*
X1230899Y439999*
X1233999Y438699*
X1237199Y438299*
X1240499Y438699*
X1243599Y439999*
X1246199Y441999*
X1248199Y444599*
X1249499Y447699*
X1249899Y450899*
Y460899*
X1249499Y464199*
X1248199Y467299*
X1246199Y4699*
X1243599Y471899*
X1240499Y473099*
X1237199Y473599*
X1233999Y473099*
X1230899Y471899*
X1228299Y4699*
X1226299Y467299*
X1225499Y465299*
X1224099*
X1223299Y467299*
X1221299Y4699*
X1218799Y471799*
Y624099*
X1218299Y626599*
X1216899Y628699*
X1137399Y708199*
X1135299Y709599*
X1132799Y710099*
X890299*
Y713699*
X1595099*
X1597699Y716299*
X1601499Y712499*
G37*
%LNpcb-2*%
%LPC*%
G36*
X1130699Y685599D02*
X1127399D01*
X1124199Y684799*
X1121299Y683099*
X1118999Y680799*
X1117299Y677899*
X1116999Y676599*
X1115699*
X1115299Y677899*
X1113699Y680799*
X1111299Y683099*
X1108499Y684799*
X1105299Y685599*
X1101999*
X1098799Y684799*
X1095899Y683099*
X1093599Y680799*
X1091899Y677899*
X1091599Y676599*
X1090299*
X1089899Y677899*
X1088299Y680799*
X1085899Y683099*
X1083099Y684799*
X1079899Y685599*
X1076599*
X1073399Y684799*
X1070499Y683099*
X1068199Y680799*
X1066499Y677899*
X1065699Y674799*
Y671399*
X1066499Y668299*
X1068199Y665399*
X1070499Y663099*
X1073399Y661399*
X1076599Y660599*
X1079899*
X1080299Y660699*
X1080999Y659599*
X1028599Y607199*
X911899*
X911799*
X911499*
X909699*
X908099Y606799*
X906599Y605899*
X905399Y604699*
X904499Y603199*
X903999Y601599*
Y599799*
X904499Y598199*
X905399Y596699*
X906599Y595499*
X907199Y595099*
Y593599*
X906599Y593199*
X905399Y591999*
X904499Y590499*
X903999Y588899*
Y587099*
X904499Y585499*
X905399Y583999*
X906599Y582799*
X908099Y581899*
X909699Y581499*
X911499*
X911699*
X1043899*
X1046399Y581999*
X1048499Y583399*
X1059399Y594299*
X1060599Y593799*
Y593199*
Y564199*
X1090699*
Y594299*
X1061799*
X1061099*
X1060599Y595499*
X1125999Y660899*
X1127399Y660599*
X1130699*
X1133899Y661399*
X1136699Y663099*
X1139099Y665399*
X1140699Y668299*
X1141599Y671399*
Y674799*
X1140699Y677899*
X1139099Y680799*
X1136699Y683099*
X1133899Y684799*
X1130699Y685599*
G37*
G36*
X1251699Y672499D02*
X1248299D01*
X1244899Y671899*
X1241699Y670499*
X1238799Y668599*
X1236399Y666199*
X1234499Y663299*
X1233099Y660099*
X1232499Y656699*
Y653299*
X1233099Y649899*
X1234499Y646699*
X1236399Y643799*
X1238799Y641399*
X1241699Y639499*
X1244899Y638099*
X1248299Y637499*
X1251699*
X1255099Y638099*
X1258299Y639499*
X1261199Y641399*
X1263599Y643799*
X1265499Y646699*
X1266899Y649899*
X1267499Y653299*
Y656699*
X1266899Y660099*
X1265499Y663299*
X1263599Y666199*
X1261199Y668599*
X1258299Y670499*
X1255099Y671899*
X1251699Y672499*
G37*
G36*
X351699D02*
X348299D01*
X344899Y671899*
X341699Y670499*
X338799Y668599*
X336399Y666199*
X334499Y663299*
X333099Y660099*
X332499Y656699*
Y653299*
X333099Y649899*
X334499Y646699*
X336399Y643799*
X338799Y641399*
X341699Y639499*
X344899Y638099*
X348299Y637499*
X351699*
X355099Y638099*
X358299Y639499*
X361199Y641399*
X363599Y643799*
X365499Y646699*
X366899Y649899*
X367499Y653299*
Y656699*
X366899Y660099*
X365499Y663299*
X363599Y666199*
X361199Y668599*
X358299Y670499*
X355099Y671899*
X351699Y672499*
G37*
G36*
X1006699Y632599D02*
X1004999D01*
X10033Y632199*
X1003099Y632099*
X910899*
X910699*
X908899*
X907299Y631699*
X905799Y630799*
X904599Y629599*
X903699Y628099*
X903299Y626499*
Y624699*
X903699Y623099*
X904599Y621599*
X905799Y620399*
X907299Y619499*
X908899Y619099*
X910699*
X910899*
X1005199*
X1007699Y619599*
X1008299Y619999*
X1008399*
X1009899Y620899*
X1011099Y622099*
X1011899Y623599*
X1012399Y625199*
Y626999*
X1011899Y628599*
X1011099Y630099*
X1009899Y631299*
X1008399Y632199*
X1006699Y632599*
G37*
G36*
X690499Y607199D02*
X688699D01*
X688499*
X618499*
X615999Y606699*
X613899Y605299*
X541399Y532799*
X388099*
X385599Y532299*
X383499Y530899*
X338299Y485799*
X336899Y483699*
X336399Y481199*
Y438699*
X333999Y436899*
X331899Y434199*
X330699Y431199*
X330299Y427899*
Y417899*
X330699Y414599*
X331899Y411599*
X333999Y408999*
X336599Y406999*
X339599Y405699*
X3429Y405299*
X346199Y405699*
X349199Y406999*
X351799Y408999*
X353899Y411599*
X354699Y413499*
X355999*
X356799Y411599*
X358799Y408999*
X361499Y406999*
X364499Y405699*
X367799Y405299*
X371099Y405699*
X374099Y406999*
X376699Y408999*
X378699Y411599*
X379999Y414599*
X380399Y417899*
Y427899*
X379999Y431199*
X378699Y434199*
X376699Y436899*
X374099Y438899*
X371099Y440099*
X367799Y440599*
X364499Y440099*
X361499Y438899*
X358799Y436899*
X356799Y434199*
X355999Y432299*
X354699*
X353899Y434199*
X351799Y436899*
X349399Y438699*
Y478499*
X370399Y499499*
X371599Y498899*
X371199Y4953*
Y490199*
X371699Y485999*
X372899Y481899*
X374899Y478199*
X377599Y474899*
X380899Y472199*
X384599Y470199*
X388699Y468899*
X392899Y468499*
X397199Y468899*
X401199Y470199*
X404999Y472199*
X408299Y474899*
X410999Y478199*
X412999Y481899*
X414199Y485999*
X414599Y490199*
Y4953*
X414199Y499499*
X412999Y503599*
X410999Y507399*
X408299Y510599*
X404999Y513299*
X401199Y515299*
X397199Y516599*
X392899Y516999*
X389299Y516599*
X388699Y517899*
X390699Y519899*
X544099*
X546599Y520399*
X548699Y521799*
X621199Y594199*
X688499*
X688699*
X690499*
X692099Y594599*
X693599Y595499*
X694799Y596699*
X695699Y598199*
X696099Y599799*
Y601599*
X695699Y603199*
X694799Y604699*
X693599Y605899*
X692099Y606799*
X690499Y607199*
G37*
G36*
X519299Y588899D02*
X499299D01*
X495999Y588499*
X492899Y587199*
X490299Y585199*
X488299Y582599*
X487099Y579499*
X486599Y576299*
X487099Y572999*
X488299Y569899*
X490299Y567299*
X492899Y565299*
X495999Y564099*
X499299Y563599*
X519299*
X522499Y564099*
X525599Y565299*
X528199Y567299*
X530199Y569899*
X531499Y572999*
X531899Y576299*
X531499Y579499*
X530199Y582599*
X528199Y585199*
X525599Y587199*
X522499Y588499*
X519299Y588899*
G37*
G36*
X629999Y567599D02*
X627299D01*
X624799Y566899*
X622499Y565599*
X620599Y563699*
X619299Y561399*
X618599Y558899*
Y556199*
X619299Y553699*
X620599Y551399*
X622499Y549499*
X624799Y548199*
X627299Y547499*
X629999*
X632499Y548199*
X634799Y549499*
X636699Y551399*
X637999Y553699*
X638699Y556199*
Y558899*
X637999Y561399*
X636699Y563699*
X634799Y565599*
X632499Y566899*
X629999Y567599*
G37*
G36*
X912699Y556499D02*
X910999D01*
X909299Y555999*
X907799Y555099*
X906599Y553899*
X905799Y552399*
X905299Y550799*
Y548999*
X905799Y547399*
X906599Y545899*
X907799Y544699*
Y544399*
X907599Y543399*
X906999Y543199*
X905499Y542399*
X904299Y541099*
X903499Y539599*
X902999Y537999*
Y536299*
X903499Y534599*
X904299Y533099*
X905499Y531899*
X906999Y530999*
X908699Y530599*
X910399*
X910999Y530699*
X918799*
X930199Y519299*
X930099Y519099*
X929499Y518299*
X911899*
X910999Y518099*
X910399Y518299*
X908699*
X906999Y517799*
X905499Y516999*
X904299Y515699*
X903499Y514199*
X902999Y512599*
Y510899*
X903499Y509199*
X904299Y507699*
X905499Y506499*
X906999Y505599*
X908699Y505199*
X910399*
X911399Y505399*
X911899Y505299*
X920399*
X920599Y504099*
X919699Y503799*
X918199Y502999*
X916999Y501799*
X916199Y500299*
X915699Y498599*
Y496899*
X916199Y495199*
X916999Y493699*
X918199Y492499*
X919699Y491699*
X920499Y491399*
X934599Y477399*
Y354999*
X935099Y352499*
X936499Y350399*
X940999Y345899*
X943099Y344499*
X993399Y294199*
Y278299*
X1028499*
Y303399*
X1002499*
X950799Y355099*
X948699Y356499*
X947499Y357699*
Y480099*
X947099Y482499*
X945599Y484599*
X927899Y502399*
X925799Y503799*
X924499Y504099*
X924699Y505299*
X926999*
X1071799Y360499*
Y292999*
X1072199Y290499*
X1073699Y288399*
X1167999Y194099*
Y133899*
X1166799Y133199*
X1164499Y130899*
X1162799Y127999*
X1161999Y124799*
Y121499*
X1162799Y118299*
X1164499Y115499*
X1166799Y113199*
X1169699Y111499*
X1172899Y110599*
X1176199*
X1179399Y111499*
X1182199Y113199*
X1184599Y115499*
X1186199Y118299*
X1187099Y121499*
Y124799*
X1186199Y127999*
X1184599Y130899*
X1182199Y133199*
X1180999Y133899*
Y196699*
X1180499Y199199*
X1179099Y201299*
X1084699Y295699*
Y362999*
X1085499Y363699*
X1085799Y363799*
X1092099Y357499*
Y303499*
X1092599Y301099*
X1093999Y298999*
X1263399Y129499*
X1265499Y128099*
X1267999Y127599*
X1352999*
X1353699Y126399*
X1356099Y123999*
X13589Y122399*
X1362099Y121499*
X1365399*
X1368599Y122399*
X1371499Y123999*
X1373799Y126399*
X1375399Y129199*
X1376299Y132399*
Y135699*
X1375399Y138899*
X1373799Y141799*
X1371499Y144099*
X1368599Y145799*
X1365399Y146599*
X1362099*
X13589Y145799*
X1356099Y144099*
X1353699Y141799*
X1352999Y140499*
X1270699*
X1104999Y306199*
Y360099*
X1104499Y362599*
X1104199Y363099*
X1105199Y363999*
X1126399Y342799*
X1128499Y341399*
X1130899Y340899*
X1147599*
X1148299Y339699*
X1150599Y337299*
X1153499Y335699*
X1156699Y334799*
X1159999*
X1163199Y335699*
X1165999Y337299*
X11684Y339699*
X1169999Y342499*
X1170899Y345699*
Y348999*
X1169999Y352199*
X11684Y355099*
X1165999Y357399*
X1163199Y358999*
X1159999Y359899*
X1156699*
X1153499Y358999*
X1150599Y357399*
X1148299Y355099*
X1147599Y353799*
X1133599*
X932899Y554499*
X930799Y555899*
X928399Y556399*
X912999*
X912699Y556499*
G37*
G36*
X1262399Y549999D02*
X1258099Y549599D01*
X1254099Y548399*
X1250299Y546399*
X1246999Y543699*
X1244299Y540399*
X1242299Y536599*
X1241099Y532599*
X1240699Y528299*
Y523199*
X1241099Y518999*
X1242299Y514899*
X1244299Y511199*
X1246999Y507899*
X1250299Y505199*
X1254099Y503199*
X1258099Y501999*
X1262399Y501499*
X1266599Y501999*
X1270699Y503199*
X1274399Y505199*
X1277699Y507899*
X1280399Y511199*
X1282399Y514899*
X1283699Y518999*
X1284099Y523199*
Y528299*
X1283699Y532599*
X1282399Y536599*
X1280399Y540399*
X1277699Y543699*
X1274399Y546399*
X1270699Y548399*
X1266599Y549599*
X1262399Y549999*
G37*
G36*
X1162099D02*
X1157799Y549599D01*
X1153699Y548399*
X1149999Y546399*
X1146699Y543699*
X1143999Y540399*
X1141999Y536599*
X1140799Y532599*
X1140399Y528299*
Y523199*
X1140799Y518999*
X1141999Y514899*
X1143999Y511199*
X1146699Y507899*
X1149999Y505199*
X1153699Y503199*
X1157799Y501999*
X1162099Y501499*
X1166299Y501999*
X1170399Y503199*
X1174099Y505199*
X1177399Y507899*
X1180099Y511199*
X1182099Y514899*
X1183299Y518999*
X1183699Y523199*
Y528299*
X1183299Y532599*
X1182099Y536599*
X1180099Y540399*
X1177399Y543699*
X1174099Y546399*
X1170399Y548399*
X1166299Y549599*
X1162099Y549999*
G37*
G36*
X684499Y530999D02*
X643899D01*
X641399Y530499*
X639299Y529099*
X471799Y361599*
X470399Y359499*
X4699Y356999*
Y305899*
X468699Y305199*
X466399Y302899*
X464699Y299999*
X463799Y296899*
Y293499*
X464699Y290399*
X466399Y287499*
X468699Y285199*
X471499Y283499*
X474699Y282699*
X477999*
X481199Y283499*
X484099Y285199*
X486399Y287499*
X488099Y290399*
X488899Y293499*
Y296899*
X488099Y299999*
X486399Y302899*
X484099Y305199*
X482899Y305899*
Y354299*
X646599Y517999*
X650899*
X651299Y516799*
X650699Y516399*
X523699Y389399*
X522299Y387299*
X521799Y384799*
Y302399*
X495199Y275699*
X358099*
X355699Y275199*
X353599Y273799*
X224599Y144899*
X214199*
X213499Y146099*
X211099Y148499*
X208299Y150099*
X205099Y150999*
X201799*
X198599Y150099*
X195699Y148499*
X193399Y146099*
X191699Y143299*
X190899Y140099*
Y136799*
X191699Y133599*
X193399Y130699*
X195699Y128399*
X198599Y126699*
X201799Y125899*
X205099*
X208299Y126699*
X211099Y128399*
X213499Y130699*
X214199Y131999*
X227299*
X229799Y132399*
X231899Y133899*
X360799Y262799*
X497799*
X500299Y263299*
X502399Y264699*
X532899Y295099*
X534299Y297199*
X534799Y299699*
Y382099*
X657999Y505299*
X662399*
X662699Y504099*
X662199Y503699*
X542799Y384299*
X541399Y382199*
X540899Y379699*
Y234299*
X380399Y073899*
X379099Y074199*
X375799*
X372599Y073399*
X369699Y071699*
X367399Y069399*
X365699Y066499*
X364899Y063299*
Y059999*
X365699Y056799*
X367399Y053999*
X369699Y051599*
X372599Y049999*
X375799Y049099*
X379099*
X382299Y049999*
X385099Y051599*
X387499Y053999*
X389099Y056799*
X389999Y059999*
Y063299*
X389599Y064699*
X551899Y227099*
X553399Y229199*
X553799Y231599*
Y376999*
X669399Y492599*
X683299*
X684199Y492399*
X685899*
X687499Y492899*
X688999Y493699*
X690199Y494899*
X691099Y496399*
X691599Y498099*
Y499799*
X691099Y501499*
X690199Y502999*
X688999Y504199*
X688399Y504599*
Y505999*
X688999Y506399*
X690199Y507599*
X691099Y509099*
X691599Y510799*
Y512499*
X691099Y514199*
X690199Y515699*
X688999Y516899*
X688399Y517299*
Y518699*
X688999Y519099*
X690199Y520299*
X691099Y521799*
X691599Y523499*
Y525199*
X691099Y526899*
X690199Y528399*
X688999Y529599*
X687499Y530399*
X685899Y530899*
X684999*
X684499Y530999*
G37*
G36*
X292599Y516999D02*
X288399Y516599D01*
X284299Y515299*
X280599Y513299*
X277299Y510599*
X274599Y507399*
X272599Y503599*
X271299Y499499*
X270899Y4953*
Y490199*
X271299Y485999*
X272599Y481899*
X274599Y478199*
X277299Y474899*
X280599Y472199*
X284299Y470199*
X288399Y468899*
X292599Y468499*
X296799Y468899*
X300899Y470199*
X304699Y472199*
X307899Y474899*
X310599Y478199*
X312699Y481899*
X313899Y485999*
X314299Y490199*
Y4953*
X313899Y499499*
X312699Y503599*
X310599Y507399*
X307899Y510599*
X304699Y513299*
X300899Y515299*
X296799Y516599*
X292599Y516999*
G37*
G36*
X729099Y542699D02*
X727299D01*
X725699Y542299*
X724199Y541399*
X722999Y540199*
X722099Y538699*
X721699Y536999*
Y535299*
X722099Y533599*
X722999Y532199*
X724199Y530899*
X725699Y530099*
X740099Y515699*
Y413599*
X739999Y413399*
Y411599*
X740499Y409999*
X741299Y408499*
X742499Y407299*
X743999Y4064*
X745699Y405999*
X747399*
X749099Y4064*
X750599Y407299*
X751799Y408499*
X752699Y409999*
X753099Y411599*
Y413399*
X752999Y413599*
Y518399*
X752499Y520799*
X751099Y522899*
X733599Y540499*
X731499Y541899*
X731199Y541999*
X730699Y542299*
X729099Y542699*
G37*
G36*
X1309999Y389899D02*
X1306699D01*
X1303499Y388999*
X1300599Y387399*
X1298299Y385099*
X1296599Y382199*
X1295799Y378999*
Y375699*
X1296599Y372499*
X1298299Y369699*
X1300599Y367299*
X1303499Y365699*
X1306699Y364799*
X1309999*
X1313199Y365699*
X1315999Y367299*
X1318399Y369699*
X1319999Y372499*
X1320899Y375699*
Y378999*
X1319999Y382199*
X1318399Y385099*
X1315999Y387399*
X1313199Y388999*
X1309999Y389899*
G37*
G36*
X1209999D02*
X1206699D01*
X1203499Y388999*
X1200599Y387399*
X1198299Y385099*
X1196599Y382199*
X1195799Y378999*
Y375699*
X1196599Y372499*
X1198299Y369699*
X1200599Y367299*
X1203499Y365699*
X1206699Y364799*
X1209999*
X1213199Y365699*
X1215999Y367299*
X1218399Y369699*
X1219999Y372499*
X1220899Y375699*
Y378999*
X1219999Y382199*
X1218399Y385099*
X1215999Y387399*
X1213199Y388999*
X1209999Y389899*
G37*
G36*
X625199Y381199D02*
X590099D01*
Y356099*
X625199*
Y381199*
G37*
G36*
X402999Y362699D02*
X399699D01*
X396499Y361899*
X3937Y360199*
X391399Y357899*
X389699Y354999*
X389499Y354399*
X388299*
X388099Y354999*
X386399Y357899*
X384099Y360199*
X381199Y361899*
X377999Y362699*
X374699*
X371499Y361899*
X368699Y360199*
X366399Y357899*
X364699Y354999*
X363799Y351899*
Y348499*
X364699Y345399*
X366399Y342499*
X368699Y340199*
X371499Y338499*
X374699Y337699*
X377999*
X381199Y338499*
X384099Y340199*
X386399Y342499*
X388099Y345399*
X388299Y345999*
X389499*
X389699Y345399*
X391399Y342499*
X3937Y340199*
X396499Y338499*
X399699Y337699*
X402999*
X406199Y338499*
X409099Y340199*
X411399Y342499*
X413099Y345399*
X413899Y348499*
Y351899*
X413099Y354999*
X411399Y357899*
X409099Y360199*
X406199Y361899*
X402999Y362699*
G37*
G36*
X742799Y365199D02*
X739099D01*
X735499Y364499*
X732199Y363099*
X729099Y361099*
X726499Y358499*
X724499Y355499*
X723099Y352099*
X722399Y348499*
Y344899*
X723099Y341299*
X724499Y337899*
X726499Y334899*
X729099Y332299*
X732199Y330299*
X735499Y328899*
X739099Y328099*
X742799*
X746299Y328899*
X749699Y330299*
X752799Y332299*
X755299Y334899*
X757399Y337899*
X758799Y341299*
X759499Y344899*
Y348499*
X758799Y352099*
X757399Y355499*
X755299Y358499*
X752799Y361099*
X749699Y363099*
X746299Y364499*
X742799Y365199*
G37*
G36*
X427999Y342699D02*
X424699D01*
X421499Y341899*
X418699Y340199*
X416399Y337899*
X414699Y334999*
X413799Y331899*
Y328499*
X414699Y325399*
X416399Y322499*
X418699Y320199*
X421499Y318499*
X424699Y317699*
X427999*
X431199Y318499*
X434099Y320199*
X436399Y322499*
X438099Y325399*
X438899Y328499*
Y331899*
X438099Y334999*
X436399Y337899*
X434099Y340199*
X431199Y341899*
X427999Y342699*
G37*
G36*
X327999D02*
X324699D01*
X321499Y341899*
X318699Y340199*
X316399Y337899*
X314699Y334999*
X313899Y331899*
Y328499*
X314699Y325399*
X316399Y322499*
X318699Y320199*
X321499Y318499*
X324699Y317699*
X327999*
X331199Y318499*
X334099Y320199*
X336399Y322499*
X338099Y325399*
X338899Y328499*
Y331899*
X338099Y334999*
X336399Y337899*
X334099Y340199*
X331199Y341899*
X327999Y342699*
G37*
G36*
X624599Y333799D02*
X589499D01*
Y308799*
X624599*
Y333799*
G37*
G36*
X1349999Y324899D02*
X1346699D01*
X1343499Y323999*
X1340599Y322399*
X1338299Y320099*
X1336599Y317199*
X1335799Y313999*
Y310699*
X1336599Y307499*
X1338299Y304699*
X1340599Y302299*
X1343499Y300699*
X1344199Y300499*
Y299199*
X1343499Y298999*
X1340599Y297399*
X1338299Y294999*
X1336599Y292199*
X1335799Y288999*
Y285699*
X1336599Y282499*
X1338299Y279699*
X1340599Y277299*
X1343499Y275699*
X1346699Y274799*
X1349999*
X1353199Y275699*
X1355999Y277299*
X1358399Y279699*
X1359999Y282499*
X1360899Y285699*
Y288999*
X1359999Y292199*
X1358399Y294999*
X1355999Y297399*
X1353199Y298999*
X1352499Y299199*
Y300499*
X1353199Y300699*
X1355999Y302299*
X1358399Y304699*
X1359999Y307499*
X1360899Y310699*
Y313999*
X1359999Y317199*
X1358399Y320099*
X1355999Y322399*
X1353199Y323999*
X1349999Y324899*
G37*
G36*
X1159999Y294899D02*
X1156699D01*
X1153499Y293999*
X1150599Y292399*
X1148299Y289999*
X1146599Y287199*
X1145799Y283999*
Y280699*
X1146599Y277499*
X1148299Y274699*
X1150599Y272299*
X1153499Y270699*
X1156699Y269799*
X1159999*
X1163199Y270699*
X1165999Y272299*
X11684Y274699*
X1169999Y277499*
X1170899Y280699*
Y283999*
X1169999Y287199*
X11684Y289999*
X1165999Y292399*
X1163199Y293999*
X1159999Y294899*
G37*
G36*
X287999Y302699D02*
X284699D01*
X281499Y301899*
X278699Y300199*
X276399Y297899*
X274699Y294999*
X273799Y291899*
Y288499*
X274699Y285399*
X276399Y282499*
X278699Y280199*
X281499Y278499*
X282199Y278299*
Y277099*
X281499Y276899*
X278699Y275199*
X276399Y272899*
X274699Y269999*
X273799Y266899*
Y263499*
X274699Y260399*
X276399Y257499*
X278699Y255199*
X281499Y253499*
X284699Y252699*
X287999*
X291199Y253499*
X294099Y255199*
X296399Y257499*
X298099Y260399*
X298899Y263499*
Y266899*
X298099Y269999*
X296399Y272899*
X294099Y275199*
X291199Y276899*
X290599Y277099*
Y278299*
X291199Y278499*
X294099Y280199*
X296399Y282499*
X298099Y285399*
X298899Y288499*
Y291899*
X298099Y294999*
X296399Y297899*
X294099Y300199*
X291199Y301899*
X287999Y302699*
G37*
G36*
X1309999Y259899D02*
X1306699D01*
X1303499Y258999*
X1300599Y257399*
X1298299Y255099*
X1296599Y252199*
X1295799Y248999*
Y245699*
X1296599Y242499*
X1298299Y239699*
X1300599Y237299*
X1303499Y235699*
X1306699Y234799*
X1309999*
X1313199Y235699*
X1315999Y237299*
X1318399Y239699*
X1319999Y242499*
X1320899Y245699*
Y248999*
X1319999Y252199*
X1318399Y255099*
X1315999Y257399*
X1313199Y258999*
X1309999Y259899*
G37*
G36*
X1209999D02*
X1206699D01*
X1203499Y258999*
X1200599Y257399*
X1198299Y255099*
X1196599Y252199*
X1195799Y248999*
Y245699*
X1196599Y242499*
X1198299Y239699*
X1200599Y237299*
X1203499Y235699*
X1206699Y234799*
X1209999*
X1213199Y235699*
X1215999Y237299*
X1218399Y239699*
X1219999Y242499*
X1220899Y245699*
Y248999*
X1219999Y252199*
X1218399Y255099*
X1215999Y257399*
X1213199Y258999*
X1209999Y259899*
G37*
G36*
X1259999Y239899D02*
X1256699D01*
X1253499Y238999*
X1250599Y237399*
X1248299Y235099*
X1246599Y232199*
X1246499Y231499*
X1245199*
X1244999Y232199*
X1243399Y235099*
X1240999Y237399*
X1238199Y238999*
X1234999Y239899*
X1231699*
X1228499Y238999*
X1225599Y237399*
X1223299Y235099*
X1221599Y232199*
X1220799Y228999*
Y225699*
X1221599Y222499*
X1223299Y219699*
X1225599Y217299*
X1228499Y215699*
X1231699Y214799*
X1234999*
X1238199Y215699*
X1240999Y217299*
X1243399Y219699*
X1244999Y222499*
X1245199Y223199*
X1246499*
X1246599Y222499*
X1248299Y219699*
X1250599Y217299*
X1253499Y215699*
X1256699Y214799*
X1259999*
X1263199Y215699*
X1265999Y217299*
X1268399Y219699*
X127Y222499*
X1270899Y225699*
Y228999*
X127Y232199*
X1268399Y235099*
X1265999Y237399*
X1263199Y238999*
X1259999Y239899*
G37*
G36*
X1027799Y256099D02*
X992799D01*
Y230999*
X1027799*
Y256099*
G37*
G36*
X477999Y242699D02*
X474699D01*
X471499Y241899*
X468699Y240199*
X466399Y237899*
X464699Y234999*
X463799Y231899*
Y228499*
X464699Y225399*
X466399Y222499*
X468699Y220199*
X471499Y218499*
X474699Y217699*
X477999*
X481199Y218499*
X484099Y220199*
X486399Y222499*
X488099Y225399*
X488899Y228499*
Y231899*
X488099Y234999*
X486399Y237899*
X484099Y240199*
X481199Y241899*
X477999Y242699*
G37*
G36*
X870799Y619899D02*
X869099D01*
X867399Y619499*
X865899Y618599*
X864699Y617399*
X864599Y617199*
X813299Y565899*
X811899Y563799*
X811399Y561299*
Y260299*
X811899Y257899*
X813299Y255799*
X843799Y225299*
X845899Y223899*
X848399Y223399*
X855899*
X857799Y220899*
X860399Y218899*
X863399Y217599*
X866699Y217199*
X871699*
X874999Y217599*
X877999Y218899*
X880699Y220899*
X882699Y223499*
X883899Y226599*
X884399Y229899*
X883899Y233099*
X882699Y236199*
X880699Y238799*
X877999Y240799*
X875499Y241899*
Y243199*
X877999Y244299*
X880699Y246299*
X882499Y248799*
X891499*
X893999Y249299*
X896099Y250699*
X920199Y274799*
X921699Y276899*
X922099Y2794*
Y413999*
X921699Y416499*
X920199Y418599*
X878999Y459899*
Y573699*
Y573999*
Y575699*
X878599Y577399*
X878499Y577499*
Y577799*
X877099Y579899*
X874999Y581299*
X872499Y581799*
X869999Y581299*
X867899Y579899*
X866499Y577799*
X866399Y577499*
Y577399*
X865999Y575699*
Y573999*
Y573799*
Y4572*
X866499Y454699*
X867899Y452599*
X909199Y411299*
Y282099*
X888799Y261699*
X882499*
X880699Y264199*
X877999Y266199*
X875499Y267299*
Y268599*
X877999Y269699*
X880699Y271699*
X882699Y274299*
X883899Y277399*
X884399Y280699*
X883899Y283899*
X882699Y286999*
X880699Y289599*
X877999Y291599*
X875499Y292699*
Y293999*
X877999Y295099*
X880699Y297099*
X882699Y299699*
X883899Y302799*
X884399Y305999*
X883899Y309299*
X882699Y312399*
X880699Y314999*
X877999Y316999*
X875499Y318099*
Y319399*
X877999Y320499*
X880699Y322499*
X882699Y325099*
X883899Y328199*
X884399Y331499*
X883899Y334699*
X882699Y337799*
X880699Y340399*
X877999Y342399*
X875499Y343499*
Y344799*
X877999Y345899*
X880699Y347899*
X882699Y350499*
X883899Y353599*
X884399Y356899*
X883899Y360099*
X882699Y363199*
X880699Y365799*
X877999Y367799*
X874999Y369099*
X871699Y369499*
X866699*
X863399Y369099*
X860399Y367799*
X857799Y365799*
X855799Y363199*
X854499Y360099*
X854099Y356899*
X854499Y353599*
X855799Y350499*
X857799Y347899*
X860399Y345899*
X862899Y344799*
Y343499*
X860399Y342399*
X857799Y340399*
X855799Y337799*
X854499Y334699*
X854099Y331499*
X854499Y328199*
X855799Y325099*
X857799Y322499*
X860399Y320499*
X862899Y319399*
Y318099*
X860399Y316999*
X857799Y314999*
X855799Y312399*
X854499Y309299*
X854099Y305999*
X854499Y302799*
X855799Y299699*
X857799Y297099*
X860399Y295099*
X862899Y293999*
Y292699*
X860399Y291599*
X857799Y289599*
X855799Y286999*
X854499Y283899*
X854099Y280699*
X854499Y277399*
X855799Y274299*
X857799Y271699*
X860399Y269699*
X862899Y268599*
Y267299*
X860399Y266199*
X857799Y264199*
X855799Y261599*
X854499Y258499*
X854099Y255199*
X854499Y251999*
X855799Y248899*
X857799Y246299*
X860399Y244299*
X862899Y243199*
Y241899*
X860399Y240799*
X857799Y238799*
X855899Y236299*
X851099*
X824399Y262999*
Y558699*
X873699Y608099*
X873999Y608199*
X875199Y609399*
X875999Y610899*
X876499Y612499*
Y614299*
X875999Y615899*
X875199Y617399*
X873999Y618599*
X872499Y619499*
X870799Y619899*
G37*
G36*
X427999Y212699D02*
X424699D01*
X421499Y211899*
X418699Y210199*
X416399Y207899*
X414699Y204999*
X413799Y201899*
Y198499*
X414699Y195399*
X416399Y192499*
X418699Y190199*
X421499Y188499*
X424699Y187699*
X427999*
X431199Y188499*
X434099Y190199*
X436399Y192499*
X438099Y195399*
X438899Y198499*
Y201899*
X438099Y204999*
X436399Y207899*
X434099Y210199*
X431199Y211899*
X427999Y212699*
G37*
G36*
X327999D02*
X324699D01*
X321499Y211899*
X318699Y210199*
X316399Y207899*
X314699Y204999*
X313899Y201899*
Y198499*
X314699Y195399*
X316399Y192499*
X318699Y190199*
X321499Y188499*
X324699Y187699*
X327999*
X331199Y188499*
X334099Y190199*
X336399Y192499*
X338099Y195399*
X338899Y198499*
Y201899*
X338099Y204999*
X336399Y207899*
X334099Y210199*
X331199Y211899*
X327999Y212699*
G37*
G36*
X742799Y210299D02*
X739099D01*
X735499Y209599*
X732199Y208199*
X729099Y206199*
X726499Y203599*
X724499Y200499*
X723099Y197199*
X722399Y193599*
Y189899*
X723099Y186299*
X724499Y182999*
X726499Y179899*
X729099Y177299*
X732199Y175299*
X735499Y173899*
X739099Y173199*
X742799*
X746299Y173899*
X749699Y175299*
X752799Y177299*
X755299Y179899*
X757399Y182999*
X758799Y186299*
X759499Y189899*
Y193599*
X758799Y197199*
X757399Y200499*
X755299Y203599*
X752799Y206199*
X749699Y208199*
X746299Y209599*
X742799Y210299*
G37*
G36*
X871699Y191699D02*
X866699D01*
X863399Y191299*
X860399Y189999*
X857799Y187999*
X855799Y185399*
X854499Y182299*
X854099Y179099*
X854499Y175799*
X855799Y172699*
X857799Y170099*
X860399Y168099*
X863399Y166799*
X866699Y166399*
X871699*
X874999Y166799*
X877999Y168099*
X880699Y170099*
X882699Y172699*
X883899Y175799*
X884399Y179099*
X883899Y182299*
X882699Y185399*
X880699Y187999*
X877999Y189999*
X874999Y191299*
X871699Y191699*
G37*
G36*
X140099Y150999D02*
X136799D01*
X133599Y150099*
X130699Y148499*
X128399Y146099*
X126699Y143299*
X125899Y140099*
Y136799*
X126699Y133599*
X128399Y130699*
X130699Y128399*
X133599Y126699*
X136799Y125899*
X140099*
X143299Y126699*
X146099Y128399*
X148499Y130699*
X150099Y133599*
X150999Y136799*
Y140099*
X150099Y143299*
X148499Y146099*
X146099Y148499*
X143299Y150099*
X140099Y150999*
G37*
G36*
X1430399Y146599D02*
X1427099D01*
X1423899Y145799*
X1421099Y144099*
X1418699Y141799*
X1417099Y138899*
X1416199Y135699*
Y132399*
X1417099Y129199*
X1418699Y126399*
X1421099Y123999*
X1423899Y122399*
X1427099Y121499*
X1430399*
X1433599Y122399*
X1436399Y123999*
X1438799Y126399*
X1440399Y129199*
X1441299Y132399*
Y135699*
X1440399Y138899*
X1438799Y141799*
X1436399Y144099*
X1433599Y145799*
X1430399Y146599*
G37*
G36*
X1241199Y135699D02*
X1237899D01*
X1234699Y134899*
X1231799Y133199*
X1229499Y130899*
X1227799Y127999*
X1226999Y124799*
Y121499*
X1227799Y118299*
X1229499Y115499*
X1231799Y113199*
X1234699Y111499*
X1237899Y110599*
X1241199*
X1244399Y111499*
X1247199Y113199*
X1249599Y115499*
X1251199Y118299*
X1252099Y121499*
Y124799*
X1251199Y127999*
X1249599Y130899*
X1247199Y133199*
X1244399Y134899*
X1241199Y135699*
G37*
G36*
X314099Y074199D02*
X310799D01*
X307599Y073399*
X304699Y071699*
X302399Y069399*
X300699Y066499*
X299899Y063299*
Y059999*
X300699Y056799*
X302399Y053999*
X304699Y051599*
X307599Y049999*
X310799Y049099*
X314099*
X317299Y049999*
X320099Y051599*
X322499Y053999*
X324099Y056799*
X324999Y059999*
Y063299*
X324099Y066499*
X322499Y069399*
X320099Y071699*
X317299Y073399*
X314099Y074199*
G37*
G36*
X1501699Y077499D02*
X1498299D01*
X1494899Y076899*
X1491699Y075499*
X1488799Y073599*
X1486399Y071199*
X1484499Y068299*
X1483099Y065099*
X1482499Y061699*
Y058299*
X1483099Y054899*
X1484499Y051699*
X1486399Y048799*
X1488799Y046399*
X1491699Y044499*
X1494899Y043099*
X1498299Y042499*
X1501699*
X1505099Y043099*
X1508299Y044499*
X1511199Y046399*
X1513599Y048799*
X1515499Y051699*
X1516899Y054899*
X1517499Y058299*
Y061699*
X1516899Y065099*
X1515499Y068299*
X1513599Y071199*
X1511199Y073599*
X1508299Y075499*
X1505099Y076899*
X1501699Y077499*
G37*
G36*
X101699D02*
X098299D01*
X094899Y076899*
X091699Y075499*
X088799Y073599*
X086399Y071199*
X084499Y068299*
X083099Y065099*
X082499Y061699*
Y058299*
X083099Y054899*
X084499Y051699*
X086399Y048799*
X088799Y046399*
X091699Y044499*
X094899Y043099*
X098299Y042499*
X101699*
X105099Y043099*
X108299Y044499*
X111199Y046399*
X113599Y048799*
X115499Y051699*
X116899Y054899*
X117499Y058299*
Y061699*
X116899Y065099*
X115499Y068299*
X113599Y071199*
X111199Y073599*
X108299Y075499*
X105099Y076899*
X101699Y077499*
G37*
%LNpcb-3*%
%LPD*%
G54D19*
X728999Y535899D02*
X746599Y518399D01*
Y412499D02*
Y518399D01*
X7366Y549899D02*
X763099Y523399D01*
Y426499D02*
Y523399D01*
X848399Y229899D02*
X869199D01*
X817899Y260299D02*
Y561299D01*
Y260299D02*
X848399Y229899D01*
X869199Y255199D02*
X891499D01*
X915699Y2794D02*
Y413999D01*
X891499Y255199D02*
X915699Y2794D01*
X872499Y4572D02*
Y575299D01*
X817899Y561299D02*
X869999Y613399D01*
X880099Y703599D02*
X1132799D01*
X739099Y562599D02*
X880099Y703599D01*
X1132799D02*
X1212299Y624099D01*
Y455899D02*
Y624099D01*
X618499Y600699D02*
X689599D01*
X544099Y526299D02*
X618499Y600699D01*
X388099Y526299D02*
X544099D01*
X3429Y481199D02*
X388099Y526299D01*
X3429Y422899D02*
Y481199D01*
X547399Y379699D02*
X666799Y499099D01*
X684499*
X547399Y231599D02*
Y379699D01*
X377399Y061699D02*
X547399Y231599D01*
X528299Y299699D02*
Y384799D01*
X655299Y511799*
X497799Y269199D02*
X528299Y299699D01*
X358099Y269199D02*
X497799D01*
X655299Y511799D02*
X684499D01*
X227299Y138399D02*
X358099Y269199D01*
X203399Y138399D02*
X227299D01*
X643899Y524499D02*
X684499D01*
X476399Y356999D02*
X643899Y524499D01*
X476399Y295199D02*
Y356999D01*
X910599Y537199D02*
X921499D01*
X1098599Y360099*
Y303499D02*
Y360099D01*
X911899Y511799D02*
X929599D01*
X1078199Y363199*
Y292999D02*
Y363199D01*
X923299Y497799D02*
X941099Y480099D01*
Y354999D02*
Y480099D01*
X945499Y350499D02*
X946199D01*
X941099Y354999D02*
X945499Y350499D01*
X1098599Y303499D02*
X1267999Y134099D01*
X1363799*
X1078199Y292999D02*
X1174499Y196699D01*
Y123199D02*
Y196699D01*
X911899Y549899D02*
X928399D01*
X1130899Y347399*
X1158299*
X1005899Y290799D02*
X1010899D01*
X946199Y350499D02*
X1005899Y290799D01*
X872499Y4572D02*
X915699Y413999D01*
X1005199Y625599D02*
X1005699Y626099D01*
X909799Y625599D02*
X1005199D01*
X1005699Y626099D02*
X1005799D01*
X910599Y587999D02*
X1043899D01*
X1128999Y6731*
X911899Y600699D02*
X1031199D01*
X1103599Y6731*
G54D20*
X869199Y179099D03*
Y204399D03*
Y229899D03*
Y255199D03*
Y280699D03*
Y305999D03*
Y331499D03*
Y356899D03*
G54D21*
X740899Y191699D03*
Y346699D03*
G54D22*
X1348299Y287399D03*
X1158299Y347399D03*
X1348299Y312399D03*
X1198299Y282399D03*
X1158299D03*
X1198299Y347399D03*
X1308299Y247399D03*
X1208299D03*
X1308299Y377399D03*
X1208299D03*
X1233299Y227399D03*
X1258299D03*
X1283299D03*
X1348299Y337399D03*
X1052799Y6731D03*
X1078199D03*
X1103599D03*
X1128999D03*
X286399Y290199D03*
X476399Y230199D03*
X286399Y265199D03*
X436399Y295199D03*
X476399D03*
X436399Y230199D03*
X326399Y3302D03*
X426399D03*
X326399Y200199D03*
X426399D03*
X401399Y350199D03*
X376399D03*
X351399D03*
X286399Y240199D03*
G54D23*
X138399Y183399D03*
X203399D03*
Y138399D03*
X138399D03*
X312399Y106699D03*
X377399D03*
Y061699D03*
X312399D03*
X1363799Y179099D03*
X1428799D03*
Y134099D03*
X1363799D03*
X1239499Y078199D03*
X1174499D03*
Y123199D03*
X1239499D03*
G54D24*
X1075699Y579199D03*
G54D25*
X1075699Y505499D03*
G54D26*
X628699Y557499D03*
Y539699D03*
G54D27*
X509299Y576299D03*
Y636299D03*
G54D28*
X458299Y609299D03*
G54D29*
X392899Y492799D03*
X292599D03*
X1262399Y525799D03*
X1162099D03*
G54D30*
X367799Y422899D03*
X3429D03*
X317999D03*
X1237199Y455899D03*
X1212299D03*
X1187499D03*
G54D31*
X1010299Y243499D03*
X1010899Y290799D03*
Y337799D03*
X607699Y368599D03*
X607099Y321299D03*
Y274299D03*
G54D32*
X349999Y654999D03*
X1249999D03*
X099999Y059999D03*
X1499999D03*
G54D33*
X728199Y536199D03*
X735799Y550099D03*
X746599Y412499D03*
X763099Y426499D03*
X869999Y613399D03*
X739099Y562599D03*
X689599Y600699D03*
X684999Y498999D03*
Y511699D03*
Y524399D03*
X922299Y497799D03*
X909599Y537099D03*
Y511699D03*
X911899Y549899D03*
X872499Y574899D03*
X1005799Y626099D03*
X909799Y625599D03*
X910599Y587999D03*
Y600699D03*
M02*